<?xml version="1.0" encoding="UTF-8" standalone="no"?>
<!DOCTYPE svg PUBLIC "-//W3C//DTD SVG 1.1//EN" "http://www.w3.org/Graphics/SVG/1.1/DTD/svg11.dtd">
<svg width="100%" height="100%" viewBox="0 0 714 387" version="1.1" xmlns="http://www.w3.org/2000/svg" xmlns:xlink="http://www.w3.org/1999/xlink" xml:space="preserve" xmlns:serif="http://www.serif.com/" style="fill-rule:evenodd;clip-rule:evenodd;stroke-linecap:round;stroke-linejoin:round;stroke-miterlimit:10;">
    <g transform="matrix(1,0,0,1,-51.3934,-163.331)">
        <g id="Pos">
            <rect x="316.807" y="197.729" width="363.515" height="216.542" style="fill:rgb(233,255,216);fill-rule:nonzero;stroke:black;stroke-width:1px;"/>
            <g transform="matrix(1.2434,0,0,1.2434,-4.99616,-126.884)">
                <circle cx="322.5" cy="494.5" r="22.5" style="fill:white;stroke:black;stroke-width:2.81px;stroke-miterlimit:1.5;"/>
            </g>
            <g transform="matrix(1,0,0,1,-1,0)">
                <g transform="matrix(1,-0,-0,1,52.3934,163.331)">
                    <path d="M337.107,329.896L326.607,324.646L337.107,319.396L337.107,329.896Z"/>
                    <path d="M362.607,324.646L335.007,324.646" style="fill:none;stroke:black;stroke-width:3.5px;stroke-miterlimit:1.5;"/>
                </g>
            </g>
            <path d="M392.616,411.948C391.852,411.863 393.917,412.87 394.678,412.979C396.38,413.222 401.553,412.979 399.834,412.979C397.084,412.979 394.895,412.201 392.616,411.948Z" style="fill:rgb(245,137,29);fill-rule:nonzero;"/>
            <path d="M321.179,204.263C334.589,201.308 335.99,202.058 339.363,200.853C345.727,198.58 348.146,196.513 355.728,198.58C365.762,201.317 365.615,209.31 358.001,215.401C355.416,217.469 351.233,218.768 348,219.038C340.609,219.654 326.864,224.779 320.724,220.174C319.152,218.995 315.823,212.312 317.087,210.627C317.639,209.892 319.605,204.61 321.179,204.263Z" style="fill:rgb(143,20,66);fill-rule:nonzero;stroke:black;stroke-width:1px;"/>
            <path d="M487.179,204.263C500.59,201.308 501.991,202.058 505.363,200.853C511.727,198.58 514.147,196.513 521.729,198.58C531.763,201.317 531.615,209.31 524.002,215.401C521.416,217.469 517.233,218.768 514,219.038C506.609,219.654 492.864,224.779 486.724,220.174C485.152,218.995 481.824,212.312 483.087,210.627C483.639,209.892 485.605,204.61 487.179,204.263Z" style="fill:rgb(143,20,66);fill-rule:nonzero;stroke:black;stroke-width:1px;"/>
            <path d="M436.784,241.66C431.231,229.101 431.688,227.579 429.84,224.512C426.351,218.724 423.845,216.763 424.369,208.921C425.064,198.544 432.928,197.105 440.406,203.361C442.945,205.485 445.047,209.328 445.952,212.443C448.02,219.566 455.768,232.023 452.47,238.953C451.626,240.728 445.735,245.314 443.833,244.41C443.003,244.015 437.436,243.134 436.784,241.66Z" style="fill:rgb(143,20,66);fill-rule:nonzero;stroke:black;stroke-width:1px;"/>
            <path d="M596.275,239.01C597.158,225.306 598.267,224.168 598.046,220.594C597.628,213.849 596.312,210.951 600.403,204.241C605.816,195.36 613.455,197.72 617.193,206.724C618.463,209.782 618.551,214.161 617.912,217.342C616.453,224.614 617.564,239.241 611.436,243.862C609.867,245.045 602.523,246.389 601.255,244.707C600.701,243.973 596.172,240.619 596.275,239.01Z" style="fill:rgb(143,20,66);fill-rule:nonzero;stroke:black;stroke-width:1px;"/>
            <path d="M329.94,342.843C324.386,330.284 324.844,328.762 322.995,325.695C319.506,319.907 317,317.946 317.525,310.104C318.219,299.727 326.083,298.288 333.561,304.544C336.101,306.668 341.093,321.182 341.093,321.182C343.161,328.305 358.795,326.929 355.498,333.86C355.498,333.86 346.737,346.614 344.836,345.71C344.005,345.315 330.592,344.317 329.94,342.843Z" style="fill:rgb(143,20,66);fill-rule:nonzero;stroke:black;stroke-width:1px;"/>
            <path d="M510.553,337.934C504.999,325.374 505.457,323.853 503.608,320.786C500.119,314.998 497.613,313.036 498.138,305.195C498.832,294.817 506.696,293.379 514.174,299.634C516.714,301.759 525.431,314.932 525.431,314.932C527.499,322.055 539.408,322.019 536.111,328.95C536.111,328.95 527.35,341.705 525.449,340.8C524.618,340.405 511.204,339.408 510.553,337.934Z" style="fill:rgb(143,20,66);fill-rule:nonzero;stroke:black;stroke-width:1px;"/>
            <path d="M409.875,301.843C400.546,291.765 396.709,291.769 393.965,289.468C388.787,285.126 389.556,282.492 387.507,274.904C384.796,264.863 391.768,260.95 400.871,264.441C403.963,265.626 407.198,268.578 409.065,271.232C413.333,277.298 424.703,286.566 423.833,294.192C423.611,296.144 419.527,302.394 417.434,302.156C416.521,302.052 410.97,303.025 409.875,301.843Z" style="fill:rgb(143,20,66);fill-rule:nonzero;stroke:black;stroke-width:1px;"/>
            <path d="M590.456,301.843C581.128,291.765 577.291,291.769 574.547,289.468C569.368,285.126 570.137,282.492 568.089,274.904C565.378,264.863 572.35,260.95 581.453,264.441C584.545,265.626 587.78,268.578 589.647,271.232C593.914,277.298 605.285,286.566 604.415,294.192C604.192,296.144 600.109,302.394 598.016,302.156C597.102,302.052 591.551,303.025 590.456,301.843Z" style="fill:rgb(143,20,66);fill-rule:nonzero;stroke:black;stroke-width:1px;"/>
            <path d="M467.101,388.913C453.476,390.628 451.245,393.75 447.777,394.641C441.231,396.322 424.289,401.865 416.927,399.112C407.186,395.469 423.313,379.821 431.452,374.453C434.216,372.63 438.5,371.719 441.744,371.746C449.161,371.809 463.316,367.962 469.01,373.11C470.467,374.428 473.17,381.387 471.758,382.949C471.141,383.631 468.7,388.711 467.101,388.913Z" style="fill:rgb(143,20,66);fill-rule:nonzero;stroke:black;stroke-width:1px;"/>
            <path d="M648.404,284.122C653.409,271.334 650.568,263.39 651.443,259.918C653.095,253.365 652.868,254.004 658.804,248.853C666.66,242.038 677.317,250.004 678.144,259.719C678.424,263.018 679.252,272.818 677.678,275.654C674.078,282.139 668.616,290.811 661.373,293.351C659.519,294.002 652.114,293.05 651.417,291.063C651.113,290.195 647.817,285.623 648.404,284.122Z" style="fill:rgb(143,20,66);fill-rule:nonzero;stroke:black;stroke-width:1px;"/>
            <path d="M385.079,380.035C375.75,369.958 371.913,369.962 369.169,367.661C363.99,363.318 364.76,360.684 362.711,353.097C360,343.056 366.972,339.143 376.075,342.633C379.167,343.819 382.402,346.771 384.269,349.424C388.537,355.491 399.907,364.759 399.037,372.385C398.815,374.337 394.731,380.587 392.638,380.348C391.725,380.244 386.173,381.218 385.079,380.035Z" style="fill:rgb(143,20,66);fill-rule:nonzero;stroke:black;stroke-width:1px;"/>
            <path d="M550.173,344.599C541.96,351.746 541.964,355.161 540.088,357.339C536.549,361.45 534.403,360.464 528.218,361.419C520.034,362.683 516.844,356.033 519.688,348.332C520.654,345.717 523.06,343.176 525.222,341.819C530.167,338.715 537.72,329.659 543.935,331.305C545.527,331.726 550.622,336.074 550.427,337.908C550.342,338.709 551.137,343.76 550.173,344.599Z" style="fill:rgb(143,20,66);fill-rule:nonzero;stroke:black;stroke-width:0.97px;"/>
            <path d="M491.726,356.236C483.513,363.383 483.517,366.798 481.642,368.976C478.103,373.087 475.956,372.101 469.772,373.056C461.588,374.32 458.398,367.67 461.241,359.969C462.207,357.354 464.613,354.813 466.776,353.456C471.72,350.353 479.273,341.296 485.489,342.942C487.08,343.363 492.175,347.711 491.981,349.546C491.896,350.347 492.69,355.397 491.726,356.236Z" style="fill:rgb(143,20,66);fill-rule:nonzero;stroke:black;stroke-width:0.97px;"/>
            <path d="M342.588,299.63C353.977,291.957 355.556,292.14 358.25,289.781C363.336,285.33 360.477,286.099 368.288,285.238C378.626,284.099 385.774,288.008 380.929,296.468C379.283,299.342 373.3,300.157 370.392,301.595C363.743,304.882 358.022,309.268 350.62,307.239C348.725,306.72 340.563,309.083 341.12,307.052C341.363,306.165 341.252,300.53 342.588,299.63Z" style="fill:rgb(143,20,66);fill-rule:nonzero;stroke:black;stroke-width:1px;"/>
            <path d="M318.303,403.682C329.692,396.009 331.27,396.192 333.965,393.833C339.05,389.382 336.191,390.151 344.003,389.29C354.34,388.151 361.488,392.059 356.643,400.52C354.998,403.393 349.014,404.209 346.106,405.647C339.457,408.934 333.736,413.32 326.334,411.291C324.439,410.772 316.277,413.135 316.834,411.104C317.077,410.217 316.966,404.582 318.303,403.682Z" style="fill:rgb(143,20,66);fill-rule:nonzero;stroke:black;stroke-width:1px;"/>
            <path d="M547.003,294.111C537.047,284.653 536.884,283.073 533.998,280.953C528.551,276.952 529.921,279.576 527.39,272.136C524.04,262.29 526.308,254.466 535.617,257.364C538.778,258.349 540.87,264.013 542.903,266.541C547.552,272.321 553.072,276.957 552.694,284.623C552.597,286.585 556.671,294.042 554.568,293.938C553.649,293.893 548.172,295.221 547.003,294.111Z" style="fill:rgb(143,20,66);fill-rule:nonzero;stroke:black;stroke-width:1px;"/>
            <path d="M322.347,222.782C321.336,222.782 320.098,221.777 319.165,222.166C317.913,222.687 317.005,225.348 316.892,226.484C316.468,230.721 317.501,235.509 323.029,234.895C327.714,234.374 331.628,226.901 328.029,223.302C326.77,222.043 325.548,222.782 322.347,222.782Z" style="fill:rgb(143,20,66);fill-rule:nonzero;stroke:black;stroke-width:1px;"/>
            <path d="M486.658,224.344C485.647,224.344 484.409,223.34 483.476,223.728C482.224,224.25 470.789,228.939 470.676,230.075C470.252,234.312 476.518,236.022 482.046,235.407C486.731,234.887 490.435,225.675 486.836,222.076C485.577,220.817 489.859,224.344 486.658,224.344Z" style="fill:rgb(143,20,66);fill-rule:nonzero;stroke:black;stroke-width:1px;"/>
            <path d="M404.624,253.019C403.614,253.019 402.375,252.014 401.442,252.403C400.19,252.924 399.283,255.585 399.169,256.721C398.745,260.958 399.778,265.746 405.306,265.132C409.991,264.611 413.906,257.138 410.307,253.539C409.048,252.28 407.826,253.019 404.624,253.019Z" style="fill:rgb(143,20,66);fill-rule:nonzero;stroke:black;stroke-width:1px;"/>
            <path d="M575.555,247.324C574.544,247.324 571.44,245.385 570.507,245.774C569.255,246.296 563.174,249.619 563.061,250.756C562.637,254.992 564.979,265.799 570.507,265.185C573.133,264.893 576.515,261.912 578.347,258.713C579.785,256.205 580.268,253.563 578.687,251.981C577.428,250.722 578.757,247.324 575.555,247.324Z" style="fill:rgb(143,20,66);fill-rule:nonzero;stroke:black;stroke-width:1px;"/>
            <path d="M675.032,207.739C674.021,207.739 670.917,205.8 669.983,206.189C668.731,206.71 662.651,210.034 662.537,211.17C662.113,215.407 664.455,226.214 669.983,225.6C672.609,225.308 675.991,222.326 677.824,219.128C679.261,216.62 679.745,213.978 678.163,212.396C676.904,211.137 678.233,207.739 675.032,207.739Z" style="fill:rgb(143,20,66);fill-rule:nonzero;stroke:black;stroke-width:1px;"/>
            <path d="M670.656,348.633C669.726,348.236 656.852,342.262 655.919,342.651C654.667,343.173 651.607,349.267 651.443,350.397C650.12,359.56 658.912,366.535 664.44,365.921C667.066,365.629 677.351,361.574 677.351,361.574L674.052,354.293C674.052,354.293 676.922,351.302 670.656,348.633Z" style="fill:rgb(143,20,66);fill-rule:nonzero;stroke:black;stroke-width:1px;"/>
            <path d="M460.413,229.217C459.402,229.217 458.164,228.213 457.231,228.602C455.979,229.123 455.072,231.784 454.958,232.92C454.534,237.157 455.567,241.945 461.095,241.331C465.78,240.81 469.694,233.337 466.096,229.738C464.837,228.479 463.615,229.217 460.413,229.217Z" style="fill:rgb(143,20,66);fill-rule:nonzero;stroke:black;stroke-width:1px;"/>
            <path d="M656.171,201.72C655.161,201.72 653.922,200.715 652.989,201.104C651.737,201.626 650.83,204.286 650.716,205.423C650.292,209.659 651.325,214.447 656.853,213.833C661.538,213.312 665.453,205.839 661.854,202.24C660.595,200.981 659.373,201.72 656.171,201.72Z" style="fill:rgb(143,20,66);fill-rule:nonzero;stroke:black;stroke-width:1px;"/>
            <path d="M348.152,309.015C347.141,309.015 345.903,308.011 344.97,308.4C343.718,308.921 342.81,311.582 342.696,312.718C342.273,316.955 343.306,321.743 348.834,321.128C353.519,320.608 357.433,313.135 353.834,309.536C352.575,308.277 351.353,309.015 348.152,309.015Z" style="fill:rgb(143,20,66);fill-rule:nonzero;stroke:black;stroke-width:1px;"/>
            <path d="M522.826,297.918C521.815,297.918 520.577,296.913 519.644,297.302C518.392,297.824 517.484,300.484 517.371,301.621C516.947,305.857 517.98,310.645 523.508,310.031C528.193,309.51 532.107,302.037 528.508,298.438C527.249,297.179 526.027,297.918 522.826,297.918Z" style="fill:rgb(143,20,66);fill-rule:nonzero;stroke:black;stroke-width:1px;"/>
            <path d="M477.843,376.072C476.832,376.072 475.593,375.067 474.66,375.456C473.408,375.978 472.501,378.639 472.387,379.775C471.964,384.011 472.996,388.799 478.524,388.185C483.209,387.664 487.124,380.191 483.525,376.593C482.266,375.334 481.044,376.072 477.843,376.072Z" style="fill:rgb(143,20,66);fill-rule:nonzero;stroke:black;stroke-width:1px;"/>
            <path d="M499.921,400.294C498.91,400.294 497.672,399.289 496.739,399.678C495.487,400.2 494.58,402.86 494.466,403.997C494.294,405.718 494.603,409.6 497.363,410.786C501.397,412.52 508.788,411.151 512.07,410.786C516.756,410.265 509.203,404.413 505.604,400.814C504.345,399.555 503.123,400.294 499.921,400.294Z" style="fill:rgb(143,20,66);fill-rule:nonzero;stroke:black;stroke-width:1px;"/>
            <path d="M676.54,366.352C675.738,365.737 671.403,365.496 670.426,365.237C669.114,364.89 666.776,366.45 665.994,367.283C663.081,370.388 667.067,382.643 671.828,385.518C675.864,387.955 677.438,376.577 676.771,371.531C676.537,369.766 679.082,368.299 676.54,366.352Z" style="fill:rgb(143,20,66);fill-rule:nonzero;stroke:black;stroke-width:1px;"/>
            <path d="M366.16,268.334C365.149,268.334 363.911,267.33 362.978,267.719C361.726,268.24 360.819,270.901 360.705,272.037C360.281,276.274 361.314,281.062 366.842,280.448C371.527,279.927 375.442,272.454 371.843,268.855C370.584,267.596 369.362,268.334 366.16,268.334Z" style="fill:rgb(143,20,66);fill-rule:nonzero;stroke:black;stroke-width:1px;"/>
            <path d="M475.72,328.679C474.709,328.679 473.471,327.675 472.538,328.064C471.286,328.585 470.378,331.246 470.265,332.382C469.841,336.619 470.874,341.407 476.402,340.793C481.087,340.272 485.001,332.799 481.402,329.2C480.143,327.941 478.921,328.679 475.72,328.679Z" style="fill:rgb(143,20,66);fill-rule:nonzero;stroke:black;stroke-width:1px;"/>
            <path d="M383.666,386.561C382.655,386.561 381.417,385.556 380.484,385.945C379.232,386.467 378.325,389.128 378.211,390.264C377.787,394.501 378.82,399.288 384.348,398.674C389.033,398.154 392.947,390.68 389.349,387.082C388.09,385.823 386.868,386.561 383.666,386.561Z" style="fill:rgb(143,20,66);fill-rule:nonzero;stroke:black;stroke-width:1px;"/>
            <path d="M395.465,199.13C394.455,199.13 393.216,198.126 392.283,198.515C391.031,199.036 390.124,201.697 390.01,202.833C389.586,207.07 390.619,211.858 396.147,211.243C400.832,210.723 404.747,203.25 401.148,199.651C399.889,198.392 398.667,199.13 395.465,199.13Z" style="fill:rgb(143,20,66);fill-rule:nonzero;stroke:black;stroke-width:1px;"/>
            <path d="M574.782,201.032C573.771,201.032 572.533,200.027 571.599,200.416C570.347,200.938 569.44,203.599 569.326,204.735C568.903,208.971 569.936,213.759 575.464,213.145C580.149,212.624 584.063,205.151 580.464,201.553C579.205,200.294 577.983,201.032 574.782,201.032Z" style="fill:rgb(143,20,66);fill-rule:nonzero;stroke:black;stroke-width:1px;"/>
            <path d="M384.395,268.184C384.117,267.212 384.742,265.745 384.112,264.955C383.266,263.894 380.458,263.754 379.334,263.957C375.145,264.716 370.826,267.026 372.937,272.171C374.726,276.532 382.988,278.24 385.458,273.79C386.322,272.233 385.276,271.262 384.395,268.184Z" style="fill:rgb(143,20,66);fill-rule:nonzero;stroke:black;stroke-width:1px;"/>
            <path d="M564.456,265.185C564.178,264.213 563.061,253.896 563.061,253.896L554.081,262.785C554.081,262.785 549.062,274.262 551.173,279.408C552.963,283.769 560.591,278.515 563.061,274.065C563.925,272.508 565.336,268.263 564.456,265.185Z" style="fill:rgb(143,20,66);fill-rule:nonzero;stroke:black;stroke-width:1px;"/>
            <path d="M422.495,203.931C422.217,202.959 422.842,201.492 422.211,200.702C421.365,199.642 418.558,199.502 417.434,199.705C413.244,200.463 408.372,199.599 410.483,204.745C412.273,209.106 421.088,213.987 423.557,209.538C424.422,207.981 423.375,207.009 422.495,203.931Z" style="fill:rgb(143,20,66);fill-rule:nonzero;stroke:black;stroke-width:1px;"/>
            <path d="M594.39,207.655C594.111,206.683 594.737,205.217 594.106,204.426C593.26,203.366 590.453,203.226 589.329,203.429C585.139,204.187 580.267,203.323 582.378,208.469C584.167,212.83 592.982,217.712 595.452,213.262C596.316,211.705 595.27,210.733 594.39,207.655Z" style="fill:rgb(143,20,66);fill-rule:nonzero;stroke:black;stroke-width:1px;"/>
            <path d="M429.011,344.184C428.733,343.212 429.359,341.745 428.728,340.955C427.882,339.895 425.074,339.755 423.951,339.958C419.761,340.716 414.889,339.852 417,344.997C418.789,349.358 427.604,354.24 430.074,349.791C430.938,348.234 429.892,347.262 429.011,344.184Z" style="fill:rgb(143,20,66);fill-rule:nonzero;stroke:black;stroke-width:1px;"/>
            <path d="M603.626,343.363C603.348,342.391 603.974,340.924 603.343,340.134C602.497,339.074 599.689,338.934 598.566,339.137C594.376,339.895 589.504,339.031 591.615,344.176C593.404,348.538 602.219,353.419 604.689,348.97C605.553,347.413 604.507,346.441 603.626,343.363Z" style="fill:rgb(143,20,66);fill-rule:nonzero;stroke:black;stroke-width:1px;"/>
            <path d="M387.792,283.713C387.514,282.741 388.139,281.274 387.508,280.484C386.662,279.424 383.855,279.283 382.731,279.487C378.541,280.245 374.222,282.555 376.334,287.701C378.123,292.062 386.385,293.769 388.854,289.319C389.718,287.763 388.672,286.791 387.792,283.713Z" style="fill:rgb(143,20,66);fill-rule:nonzero;stroke:black;stroke-width:1px;"/>
            <path d="M568.373,283.713C568.095,282.741 568.72,281.274 568.09,280.484C567.244,279.424 564.436,279.283 563.313,279.487C559.123,280.245 554.804,282.555 556.915,287.701C558.705,292.062 566.966,293.769 569.436,289.319C570.3,287.763 569.254,286.791 568.373,283.713Z" style="fill:rgb(143,20,66);fill-rule:nonzero;stroke:black;stroke-width:1px;"/>
            <path d="M339.495,220.883C332.613,228.048 326.014,227.345 331.426,231.404C340.921,238.525 352.417,233.022 362.566,231.176C365.587,230.627 371.632,230.345 372.795,226.858C373.359,225.166 373.82,221.545 371.431,220.948C367.323,219.921 362.654,221.283 358.702,220.493C355.339,219.821 352.807,217.24 349.61,216.174C345.802,214.905 342.272,217.992 339.495,220.883Z" style="fill:rgb(143,20,66);fill-rule:nonzero;stroke:black;stroke-width:1px;"/>
            <path d="M497.493,223.981C490.61,231.145 484.011,230.442 489.424,234.501C498.918,241.622 510.415,236.119 520.564,234.274C523.584,233.725 529.63,233.443 530.792,229.955C531.356,228.263 531.817,224.643 529.429,224.045C525.32,223.018 520.651,224.381 516.7,223.591C513.336,222.918 510.805,220.338 507.608,219.272C503.8,218.003 500.27,221.09 497.493,223.981Z" style="fill:rgb(143,20,66);fill-rule:nonzero;stroke:black;stroke-width:1px;"/>
            <path d="M427.433,354.125C420.55,361.289 419.697,364.198 425.109,368.257C434.604,375.378 440.179,370.103 450.329,368.257C453.349,367.708 459.57,363.587 460.733,360.099C461.297,358.407 461.757,354.787 459.369,354.189C455.26,353.162 450.591,354.525 446.64,353.735C443.277,353.062 438.155,357.385 434.958,356.319C431.15,355.05 430.21,351.234 427.433,354.125Z" style="fill:rgb(143,20,66);fill-rule:nonzero;stroke:black;stroke-width:1px;"/>
            <path d="M602.542,349.725C595.659,356.89 595.465,354.552 600.877,358.612C610.372,365.733 615.463,361.864 625.613,360.019C628.633,359.47 634.679,359.188 635.841,355.7C636.405,354.008 636.866,350.387 634.478,349.79C630.369,348.763 625.7,350.126 621.749,349.335C618.385,348.663 613.264,352.986 610.067,351.92C606.259,350.651 605.318,346.835 602.542,349.725Z" style="fill:rgb(143,20,66);fill-rule:nonzero;stroke:black;stroke-width:1px;"/>
            <path d="M606.644,364.535C596.711,364.694 598.234,362.91 599.163,369.611C600.793,381.367 607.125,382.258 615.582,388.165C618.099,389.923 622.556,394.017 625.851,392.386C627.45,391.595 632.765,387.262 631.507,385.145C629.343,381.505 624.019,377.971 624.019,377.971C624.019,377.971 611.879,374.444 610.385,371.424C608.605,367.826 610.652,364.471 606.644,364.535Z" style="fill:rgb(143,20,66);fill-rule:nonzero;stroke:black;stroke-width:1px;"/>
            <path d="M322.33,291.166C329.388,298.157 328.584,304.744 332.725,299.395C339.991,290.01 334.665,278.431 332.975,268.255C332.472,265.226 332.283,259.177 328.814,257.961C327.13,257.371 323.517,256.855 322.884,259.234C321.794,263.326 323.085,268.016 322.234,271.955C321.51,275.307 318.891,277.8 317.777,280.98C316.449,284.768 319.482,288.345 322.33,291.166Z" style="fill:rgb(143,20,66);fill-rule:nonzero;stroke:black;stroke-width:1px;"/>
            <path d="M484.713,294.555C491.771,301.546 495.842,308.004 499.983,302.654C507.249,293.27 501.923,281.69 500.233,271.514C499.73,268.485 499.541,262.436 496.071,261.22C494.388,260.631 490.775,260.114 490.141,262.494C489.052,266.586 487.432,272.197 487.432,272.197C487.432,272.197 486.149,281.059 485.034,284.239C483.707,288.027 481.865,291.734 484.713,294.555Z" style="fill:rgb(143,20,66);fill-rule:nonzero;stroke:black;stroke-width:1px;"/>
            <path d="M445.873,267.629C452.932,274.621 453.385,279.415 457.526,274.065C464.792,264.68 459.286,267.642 457.596,257.466C457.093,254.437 456.746,245.742 453.277,244.527C451.593,243.937 447.325,245.774 447.325,245.774C445.416,248.853 445.012,246.924 444.161,250.863C443.437,254.216 440.818,256.708 439.704,259.888C438.376,263.676 443.025,264.808 445.873,267.629Z" style="fill:rgb(143,20,66);fill-rule:nonzero;stroke:black;stroke-width:1px;"/>
            <path d="M620.341,251.191C627.4,258.183 627.853,262.977 631.994,257.627C639.26,248.243 633.754,251.204 632.064,241.028C631.561,237.999 631.214,229.305 627.744,228.089C626.061,227.499 621.793,229.336 621.793,229.336C619.884,232.416 619.48,230.486 618.629,234.425C617.905,237.778 615.286,240.27 614.172,243.45C612.844,247.238 617.493,248.371 620.341,251.191Z" style="fill:rgb(143,20,66);fill-rule:nonzero;stroke:black;stroke-width:1px;"/>
            <path d="M349.362,363.811C356.42,370.803 357.075,376.022 361.216,370.672C368.482,361.288 362.774,363.824 361.085,353.647C360.582,350.619 360.234,341.924 356.765,340.708C355.082,340.118 350.813,341.956 350.813,341.956C348.905,345.035 346.725,344.729 345.875,348.668C345.151,352.021 344.307,352.89 343.192,356.07C341.865,359.858 346.514,360.99 349.362,363.811Z" style="fill:rgb(143,20,66);fill-rule:nonzero;stroke:black;stroke-width:1px;"/>
            <path d="M542.103,321.551C537.494,330.352 532.697,332.511 539.027,334.898C550.132,339.086 546.031,334.376 555.262,329.771C558.01,328.401 566.219,325.514 566.361,321.841C566.431,320.058 563.421,316.518 563.421,316.518C559.916,315.599 559.569,313.425 555.554,313.769C552.136,314.062 551.058,313.511 547.69,313.38C543.679,313.224 543.963,318 542.103,321.551Z" style="fill:rgb(143,20,66);fill-rule:nonzero;stroke:black;stroke-width:1px;"/>
            <path d="M321.727,234.626L320.388,241.291C320.388,241.291 324.1,247.374 326.186,250.155C329.824,255.006 338.897,259.19 343.738,256.747C349.143,254.019 352.058,251.337 351.189,248.11C349.598,242.2 343.891,241.548 338.979,237.455C333.779,233.121 327.991,233.925 327.991,233.925L321.727,234.626Z" style="fill:rgb(143,20,66);fill-rule:nonzero;stroke:black;stroke-width:1px;"/>
            <path d="M482.457,237.808L481.118,244.473C481.118,244.473 484.83,250.557 486.916,253.338C490.554,258.189 499.626,262.373 504.468,259.93C509.873,257.202 512.788,254.519 511.919,251.292C510.328,245.382 504.621,244.731 499.709,240.637C494.508,236.304 488.721,237.107 488.721,237.107L482.457,237.808Z" style="fill:rgb(143,20,66);fill-rule:nonzero;stroke:black;stroke-width:1px;"/>
            <path d="M409.095,256.861L413.275,262.223C413.275,262.223 420.308,263.376 423.776,263.609C429.826,264.014 438.915,259.865 440.22,254.601C441.677,248.725 441.544,244.766 438.531,243.32C433.013,240.672 428.797,244.574 422.491,245.628C415.814,246.744 412.649,251.656 412.649,251.656L409.095,256.861Z" style="fill:rgb(143,20,66);fill-rule:nonzero;stroke:black;stroke-width:1px;"/>
            <path d="M349.077,385.987L353.256,391.349C353.256,391.349 360.289,392.502 363.758,392.735C369.807,393.14 378.896,388.991 380.201,383.727C381.658,377.851 381.525,373.892 378.512,372.446C372.994,369.798 368.779,373.7 362.472,374.754C355.796,375.87 352.63,380.782 352.63,380.782L349.077,385.987Z" style="fill:rgb(143,20,66);fill-rule:nonzero;stroke:black;stroke-width:1px;"/>
            <path d="M581.059,257.732L585.238,263.094C585.238,263.094 592.271,264.247 595.739,264.48C601.789,264.885 610.878,260.735 612.183,255.472C613.64,249.596 613.507,245.636 610.494,244.191C604.976,241.543 600.761,245.444 594.454,246.499C587.777,247.615 584.612,252.526 584.612,252.526L581.059,257.732Z" style="fill:rgb(143,20,66);fill-rule:nonzero;stroke:black;stroke-width:1px;"/>
            <path d="M387.509,198.195C386.724,197.055 380.308,198.293 378.728,198.885C374.132,200.609 365.503,203.63 363.73,208.949C362.353,213.081 367.651,223.182 371.229,225.328C373.309,226.577 375.958,226.785 378.136,228.091C380.868,229.731 382.416,231.699 385.634,232.235C390.113,232.981 389.296,228.211 390.37,225.526C391.204,223.442 393.346,221.683 393.725,219.408C394.924,212.217 391.441,203.907 387.509,198.195Z" style="fill:rgb(143,20,66);fill-rule:nonzero;stroke:black;stroke-width:1px;"/>
            <path d="M549.323,199.055C548.538,197.914 542.122,199.153 540.541,199.745C535.945,201.469 527.317,204.49 525.544,209.809C524.167,213.941 529.464,224.041 533.042,226.188C535.123,227.437 537.772,227.644 539.949,228.951C542.682,230.591 544.23,232.559 547.448,233.095C551.926,233.841 551.11,229.071 552.184,226.386C553.017,224.302 555.16,222.543 555.539,220.268C556.737,213.077 553.254,204.767 549.323,199.055Z" style="fill:rgb(143,20,66);fill-rule:nonzero;stroke:black;stroke-width:1px;"/>
            <path d="M338.097,288.5C338.69,289.75 345.221,289.549 346.876,289.215C351.688,288.245 360.687,286.636 363.284,281.667C365.301,277.807 352.878,279.243 355.119,270.184C355.702,267.829 354.051,262.113 352.109,260.476C349.672,258.423 348.457,256.233 345.365,255.191C341.063,253.742 341.109,258.582 339.622,261.062C338.467,262.986 336.072,264.382 335.336,266.567C333.008,273.476 335.124,282.234 338.097,288.5Z" style="fill:rgb(143,20,66);fill-rule:nonzero;stroke:black;stroke-width:1px;"/>
            <path d="M506.457,290.327C507.05,291.578 513.582,291.376 515.237,291.043C520.048,290.073 529.047,288.464 531.645,283.494C533.662,279.635 521.238,281.07 523.479,272.011C524.062,269.656 522.411,263.94 520.469,262.304C518.033,260.25 516.818,258.061 513.726,257.019C509.423,255.569 509.47,260.409 507.982,262.889C506.828,264.813 504.433,266.209 503.697,268.395C501.369,275.303 503.485,284.061 506.457,290.327Z" style="fill:rgb(143,20,66);fill-rule:nonzero;stroke:black;stroke-width:1px;"/>
            <path d="M392.93,411.545C393.523,412.795 400.055,412.594 401.71,412.261C406.521,411.291 415.52,409.682 418.118,404.712C420.135,400.852 407.711,402.288 409.952,393.229C410.535,390.874 408.884,385.158 406.942,383.521C404.506,381.468 403.291,379.279 400.199,378.237C395.896,376.787 395.943,381.627 394.455,384.107C393.301,386.031 390.906,387.427 390.17,389.612C387.842,396.521 389.958,405.279 392.93,411.545Z" style="fill:rgb(143,20,66);fill-rule:nonzero;stroke:black;stroke-width:1px;"/>
            <path d="M435.971,297.264C437.206,297.89 442.248,293.733 443.352,292.456C446.564,288.744 452.695,281.964 451.708,276.444C450.941,272.157 441.456,265.822 437.287,265.648C434.863,265.547 432.785,263.303 430.248,263.197C427.064,263.065 418.671,264.573 415.588,265.641C411.298,267.128 411.304,265.279 411.645,268.151C411.91,270.38 419.609,279.43 420.364,281.609C422.752,288.497 429.786,294.128 435.971,297.264Z" style="fill:rgb(143,20,66);fill-rule:nonzero;stroke:black;stroke-width:1px;"/>
            <path d="M616.553,297.264C617.787,297.89 622.829,293.733 623.934,292.456C627.145,288.744 633.277,281.964 632.289,276.444C631.522,272.157 622.038,265.822 617.869,265.648C615.445,265.547 613.367,263.303 610.83,263.197C607.646,263.065 599.252,264.573 596.17,265.641C591.88,267.128 591.885,265.279 592.227,268.151C592.491,270.38 600.191,279.43 600.946,281.609C603.333,288.497 610.367,294.128 616.553,297.264Z" style="fill:rgb(143,20,66);fill-rule:nonzero;stroke:black;stroke-width:1px;"/>
            <path d="M539.329,398.209C540.563,398.835 545.605,394.678 546.71,393.402C549.921,389.69 556.053,382.91 555.065,377.39C554.298,373.103 544.814,366.767 540.645,366.594C538.221,366.493 536.143,364.249 533.605,364.143C530.422,364.01 522.028,365.518 518.945,366.587C514.656,368.074 514.661,366.225 515.002,369.097C515.267,371.325 522.966,380.375 523.722,382.554C526.109,389.442 533.143,395.073 539.329,398.209Z" style="fill:rgb(143,20,66);fill-rule:nonzero;stroke:black;stroke-width:1px;"/>
            <path d="M429.179,238.796C429.709,237.495 431.209,229.017 429.829,227.93C425.815,224.767 426.118,211.542 414.333,211.297C409.686,211.2 401.705,225.844 401.873,230.158C401.971,232.666 397.736,235.52 397.839,238.146C397.967,241.44 402.689,243.464 404.022,246.604C405.878,250.973 409.468,247.717 412.34,247.244C414.569,246.878 417.25,247.845 419.388,246.974C426.149,244.221 426.521,245.316 429.179,238.796Z" style="fill:rgb(143,20,66);fill-rule:nonzero;stroke:black;stroke-width:1px;"/>
            <path d="M425.307,380.175C425.837,378.874 427.337,370.396 425.957,369.308C421.943,366.146 422.246,352.92 410.461,352.676C405.814,352.579 403.591,361.67 403.759,365.984C403.857,368.492 402.45,371.427 402.553,374.052C402.681,377.346 406.134,377.481 407.467,380.621C407.467,380.621 404.595,389.569 407.467,389.097C409.696,388.73 413.378,389.223 415.516,388.352C422.277,385.599 422.649,386.695 425.307,380.175Z" style="fill:rgb(143,20,66);fill-rule:nonzero;stroke:black;stroke-width:1px;"/>
            <path d="M596.84,240.698C597.371,239.397 598.871,230.919 597.49,229.832C593.476,226.669 593.78,213.444 581.995,213.199C577.347,213.103 569.367,227.746 569.535,232.06C569.633,234.568 562.958,240.66 563.061,243.286C563.189,246.58 570.351,245.366 571.684,248.506C573.539,252.875 577.129,249.619 580.002,249.146C582.231,248.78 584.912,249.747 587.05,248.876C593.811,246.123 594.183,247.218 596.84,240.698Z" style="fill:rgb(143,20,66);fill-rule:nonzero;stroke:black;stroke-width:1px;"/>
            <path d="M439.377,321.857C439.361,320.452 437.452,312.057 435.758,311.59C430.831,310.233 425.978,297.927 415.021,302.276C410.701,303.991 408.145,317.272 409.974,321.182C411.038,323.456 410.598,330.37 411.712,332.75C413.109,335.736 416.775,336.44 419.223,338.816C422.629,342.123 424.673,337.729 427.137,336.179C429.049,334.976 431.895,334.826 433.528,333.194C438.69,328.032 439.458,328.897 439.377,321.857Z" style="fill:rgb(143,20,66);fill-rule:nonzero;stroke:black;stroke-width:1px;"/>
            <path d="M619.958,321.857C619.942,320.452 618.034,312.057 616.34,311.59C611.413,310.233 606.559,297.927 595.603,302.276C591.283,303.991 588.726,317.272 590.556,321.182C591.619,323.456 591.18,330.37 592.293,332.75C593.69,335.736 597.357,336.44 599.805,338.816C603.21,342.123 605.255,337.729 607.719,336.179C609.631,334.976 612.477,334.826 614.11,333.194C619.272,328.032 620.04,328.897 619.958,321.857Z" style="fill:rgb(143,20,66);fill-rule:nonzero;stroke:black;stroke-width:1px;"/>
            <path d="M599.346,382.081C599.33,380.676 597.47,381.087 595.775,380.621C590.849,379.264 595.775,382.396 580.559,377.971C576.096,376.673 568.114,377.496 569.943,381.406C571.007,383.68 574.688,389.814 575.802,392.194C577.199,395.18 578.112,403.675 580.559,406.051C583.965,409.357 583.516,407.166 585.98,405.616C587.892,404.413 589.473,394.395 591.106,392.762C596.268,387.601 599.427,389.122 599.346,382.081Z" style="fill:rgb(143,20,66);fill-rule:nonzero;stroke:black;stroke-width:1.05px;"/>
            <path d="M368.348,228.809C369.06,228.141 364.763,228.809 364.763,228.809C363.134,228.628 362.228,228.848 360.963,228.928C356.663,229.199 354.047,230.972 350.27,234.209C342.974,240.462 342.755,248.929 351.256,254.93C360.103,261.174 375.271,257.902 378.489,246.642C379.52,243.03 377.301,234.232 372.227,230.877C371.163,230.174 368.325,228.83 368.348,228.809Z" style="fill:rgb(143,20,66);fill-rule:nonzero;stroke:black;stroke-width:1px;"/>
            <path d="M665.366,382.693C666.079,382.024 661.781,382.693 661.781,382.693C660.152,382.512 660.069,380.541 658.804,380.621C654.504,380.892 651.065,384.856 647.288,388.093C639.993,394.346 639.773,402.812 648.275,408.813C657.121,415.058 673.968,416.877 677.185,405.616C678.217,402.005 674.319,388.115 669.245,384.761C668.182,384.058 665.344,382.714 665.366,382.693Z" style="fill:rgb(143,20,66);fill-rule:nonzero;stroke:black;stroke-width:1px;"/>
            <path d="M530.162,233.786C530.874,233.118 526.576,233.786 526.576,233.786C524.948,233.605 524.042,233.825 522.777,233.904C518.477,234.176 515.86,235.949 512.083,239.186C504.788,245.439 504.568,253.906 513.07,259.907C521.916,266.151 537.085,262.879 540.302,251.618C541.334,248.007 542.91,235.668 537.836,232.313C536.773,231.61 530.139,233.807 530.162,233.786Z" style="fill:rgb(143,20,66);fill-rule:nonzero;stroke:black;stroke-width:1px;"/>
            <path d="M487.68,298.291C488.392,297.623 484.095,298.291 484.095,298.291C482.466,298.11 481.56,298.33 480.296,298.41C475.996,298.681 473.379,300.454 469.602,303.692C462.307,309.945 462.087,318.411 470.588,324.412C479.435,330.656 494.603,327.385 497.821,316.124C498.853,312.512 496.633,303.714 491.559,300.359C490.496,299.656 487.658,298.313 487.68,298.291Z" style="fill:rgb(143,20,66);fill-rule:nonzero;stroke:black;stroke-width:1px;"/>
            <path d="M661.079,293.198C661.791,292.529 657.494,293.198 657.494,293.198C655.865,293.017 654.959,293.236 653.695,293.316C649.395,293.588 646.778,295.361 643.001,298.598C635.706,304.851 635.486,313.317 643.987,319.318C652.834,325.563 668.002,322.291 671.22,311.03C672.252,307.419 670.032,298.62 664.958,295.266C663.894,294.563 661.057,293.219 661.079,293.198Z" style="fill:rgb(143,20,66);fill-rule:nonzero;stroke:black;stroke-width:1px;"/>
            <path d="M342.427,363.512C343.139,362.844 338.841,363.512 338.841,363.512C337.213,363.331 336.307,363.551 335.042,363.631C330.742,363.902 328.125,365.675 324.348,368.912C317.053,375.165 316.834,383.632 325.335,389.633C334.182,395.877 349.35,392.605 352.567,381.345C353.599,377.733 351.38,368.935 346.306,365.58C345.242,364.877 342.404,363.533 342.427,363.512Z" style="fill:rgb(143,20,66);fill-rule:nonzero;stroke:black;stroke-width:1px;"/>
            <path d="M513.623,340.124C514.335,339.456 510.037,340.124 510.037,340.124C508.409,339.943 507.503,340.163 506.238,340.243C501.938,340.514 499.321,342.287 495.544,345.525C488.249,351.778 488.029,360.244 496.531,366.245C505.377,372.489 520.546,369.217 523.763,357.957C524.795,354.345 522.576,345.547 517.501,342.192C516.438,341.489 513.6,340.146 513.623,340.124Z" style="fill:rgb(143,20,66);fill-rule:nonzero;stroke:black;stroke-width:1px;"/>
            <path d="M564.734,382.151C565.447,381.483 560.347,378.597 560.347,378.597C560.347,378.597 556.294,381.167 555.029,381.247C550.729,381.518 542.483,398.672 538.706,401.909C531.411,408.162 536.992,409.612 547.241,411.412C560.347,413.713 569.043,416.215 577.894,408.546C581.054,405.808 567.094,383.922 567.094,383.922C567.094,383.922 564.712,382.173 564.734,382.151Z" style="fill:rgb(143,20,66);fill-rule:nonzero;stroke:black;stroke-width:1px;"/>
            <path d="M471.658,198.722C472.371,198.054 468.073,198.722 468.073,198.722C466.445,198.541 465.539,198.761 464.274,198.84C459.974,199.112 457.357,200.885 453.58,204.122C446.285,210.375 446.065,218.842 454.567,224.843C463.413,231.087 478.582,227.815 481.799,216.555C482.831,212.943 480.611,204.144 475.537,200.79C474.474,200.087 471.636,198.743 471.658,198.722Z" style="fill:rgb(143,20,66);fill-rule:nonzero;stroke:black;stroke-width:1px;"/>
            <path d="M640.87,199.262C641.582,198.594 637.284,199.262 637.284,199.262C635.656,199.081 634.75,199.301 633.485,199.381C629.185,199.652 626.568,201.425 622.791,204.663C615.496,210.915 615.276,219.382 623.778,225.383C632.624,231.627 647.793,228.355 651.01,217.095C652.042,213.483 649.823,204.685 644.748,201.33C643.685,200.627 640.847,199.284 640.87,199.262Z" style="fill:rgb(143,20,66);fill-rule:nonzero;stroke:black;stroke-width:1px;"/>
            <path d="M404.744,338.986C404.614,339.954 407.524,336.722 407.524,336.722C408.9,335.834 409.464,335.092 410.395,334.231C413.557,331.305 405.242,328.816 406.126,323.921C407.833,314.465 411.882,307.224 401.5,307.94C390.697,308.685 381.003,320.801 385.62,331.564C387.1,335.016 394.378,340.436 400.43,339.832C401.699,339.706 404.748,338.955 404.744,338.986Z" style="fill:rgb(143,20,66);fill-rule:nonzero;stroke:black;stroke-width:1px;"/>
            <path d="M585.325,338.986C585.195,339.954 588.105,336.722 588.105,336.722C589.482,335.834 590.046,335.092 590.976,334.231C594.139,331.305 585.824,328.816 586.708,323.921C588.415,314.465 592.463,307.224 582.082,307.94C571.279,308.685 561.584,320.801 566.201,331.564C567.682,335.016 574.959,340.436 581.012,339.832C582.281,339.706 585.329,338.955 585.325,338.986Z" style="fill:rgb(143,20,66);fill-rule:nonzero;stroke:black;stroke-width:1px;"/>
            <path d="M592.945,379.728C592.815,380.696 597.072,377.4 597.072,377.4C598.449,376.512 597.666,375.833 598.596,374.973C601.759,372.047 593.444,369.558 594.328,364.663C596.035,355.207 600.083,347.966 589.702,348.681C578.899,349.426 569.205,361.543 573.821,372.306C575.302,375.758 582.579,381.178 588.632,380.574C589.901,380.448 592.95,379.697 592.945,379.728Z" style="fill:rgb(143,20,66);fill-rule:nonzero;stroke:black;stroke-width:1px;"/>
            <path d="M384.208,229.434C381.897,230.517 379.958,237.367 379.359,238.594C376.842,243.747 371.541,253.605 373.791,259.606C376.543,266.942 394.4,261.176 397.318,254.757C401.049,246.547 393.438,237.192 388.698,230.871C387.926,229.842 386.344,228.3 384.926,228.536C383.544,228.767 385.237,228.952 384.208,229.434Z" style="fill:rgb(143,20,66);fill-rule:nonzero;stroke:black;stroke-width:1px;"/>
            <path d="M551.392,229.326C549.082,230.408 544.715,234.18 544.116,235.407C541.599,240.561 538.725,253.496 540.976,259.497C543.727,266.834 556.746,259.445 559.664,253.026C563.395,244.816 560.623,237.084 555.882,230.763C555.11,229.734 553.529,228.192 552.11,228.428C550.729,228.658 552.422,228.844 551.392,229.326Z" style="fill:rgb(143,20,66);fill-rule:nonzero;stroke:black;stroke-width:1px;"/>
            <path d="M360.313,308.669C358.932,310.814 355.808,321.925 355.953,323.282C356.564,328.985 350.855,338.209 355.953,342.093C362.186,346.841 385.83,330.124 384.885,323.136C383.678,314.2 372.256,310.327 364.879,307.497C363.678,307.036 361.519,306.572 360.443,307.527C359.396,308.457 360.928,307.713 360.313,308.669Z" style="fill:rgb(143,20,66);fill-rule:nonzero;stroke:black;stroke-width:1px;"/>
            <path d="M535.064,287.368C533.684,289.514 530.559,300.624 530.704,301.982C531.315,307.684 525.606,316.908 530.704,320.792C536.937,325.541 560.581,308.824 559.636,301.836C558.429,292.899 547.007,289.027 539.63,286.196C538.43,285.736 536.27,285.271 535.195,286.226C534.147,287.156 535.679,286.412 535.064,287.368Z" style="fill:rgb(143,20,66);fill-rule:nonzero;stroke:black;stroke-width:1px;"/>
            <path d="M607.368,384.663C604.825,384.869 601.751,386.158 600.761,387.098C596.602,391.047 588.038,399.642 588.049,406.051C588.062,413.886 613.474,414.987 618.451,409.992C624.816,403.605 617.357,400.193 617.357,392.292C617.357,388.716 612.244,385.856 612.244,385.856C612.244,385.856 608.501,384.57 607.368,384.663Z" style="fill:rgb(143,20,66);fill-rule:nonzero;stroke:black;stroke-width:1px;"/>
            <path d="M467.134,235.963C465.753,238.108 456.583,247.892 456.729,249.25C457.339,254.953 457.676,265.502 462.774,269.386C469.007,274.135 482.013,260.41 481.069,253.422C479.862,244.486 479.077,237.621 471.7,234.791C470.499,234.33 468.34,233.865 467.264,234.82C466.217,235.75 467.749,235.007 467.134,235.963Z" style="fill:rgb(143,20,66);fill-rule:nonzero;stroke:black;stroke-width:1px;"/>
            <path d="M642.961,223.658C641.58,225.803 632.41,235.588 632.556,236.945C633.166,242.648 633.503,253.197 638.601,257.081C644.834,261.83 657.841,248.106 656.896,241.117C655.689,232.181 654.904,225.316 647.527,222.486C646.326,222.025 644.167,221.561 643.091,222.515C642.044,223.445 643.576,222.702 642.961,223.658Z" style="fill:rgb(143,20,66);fill-rule:nonzero;stroke:black;stroke-width:1px;"/>
            <path d="M401.704,201.937C399.394,203.019 398.042,213.102 397.442,214.329C394.925,219.482 389.037,226.107 391.288,232.108C394.039,239.445 399.684,230.986 402.602,224.566C406.333,216.357 410.935,209.695 406.194,203.373C405.422,202.345 403.841,200.802 402.422,201.039C401.041,201.269 402.733,201.455 401.704,201.937Z" style="fill:rgb(143,20,66);fill-rule:nonzero;stroke:black;stroke-width:1px;"/>
            <path d="M648.879,353.989C646.568,355.072 642.453,368.807 641.854,370.034C639.337,375.188 629.312,382.914 631.507,385.856C633.701,388.798 638.936,396.652 641.854,390.232C645.585,382.023 661.345,364.299 656.604,357.978C655.832,356.949 651.016,352.855 649.597,353.092C648.216,353.322 649.908,353.507 648.879,353.989Z" style="fill:rgb(143,20,66);fill-rule:nonzero;stroke:black;stroke-width:1px;"/>
            <path d="M558.175,202.016C556.516,203.954 559.44,213.698 559.4,215.063C559.231,220.796 556.596,229.258 561.12,233.798C566.651,239.349 568.307,229.315 568.32,222.263C568.336,213.246 569.783,205.28 562.858,201.474C561.731,200.855 559.654,200.102 558.459,200.902C557.295,201.681 558.914,201.152 558.175,202.016Z" style="fill:rgb(143,20,66);fill-rule:nonzero;stroke:black;stroke-width:1px;"/>
            <path d="M381.584,400.196C379.491,398.737 372.786,392.667 371.424,392.762C365.702,393.162 354.319,401.323 350.25,406.274C345.274,412.327 355.423,412.982 362.441,412.297C371.416,411.42 386.077,412.884 389.178,405.616C389.682,404.433 383.636,401.479 382.721,400.369C381.831,399.288 382.517,400.846 381.584,400.196Z" style="fill:rgb(143,20,66);fill-rule:nonzero;stroke:black;stroke-width:1px;"/>
            <path d="M556.785,340.709C554.266,341.111 550.182,350.428 549.267,351.442C545.424,355.7 537.935,360.44 538.44,366.829C539.058,374.641 546.82,368.07 551.398,362.706C557.252,355.847 563.514,350.715 560.704,343.33C560.246,342.128 559.152,340.209 557.724,340.044C556.332,339.884 557.908,340.53 556.785,340.709Z" style="fill:rgb(143,20,66);fill-rule:nonzero;stroke:black;stroke-width:1px;"/>
            <path d="M478.419,267.798C476.109,268.88 474.757,278.963 474.158,280.19C471.641,285.343 465.753,291.968 468.003,297.969C470.754,305.306 476.399,296.847 479.317,290.427C483.049,282.218 487.65,275.556 482.909,269.234C482.138,268.206 480.556,266.663 479.138,266.9C477.756,267.13 479.449,267.316 478.419,267.798Z" style="fill:rgb(143,20,66);fill-rule:nonzero;stroke:black;stroke-width:1px;"/>
            <path d="M671.184,312.52C669.072,313.95 666.661,331.068 666.261,332.374C664.582,337.857 659.466,337.076 662.628,342.651C666.493,349.467 673.877,348.179 675.754,341.382C678.155,332.69 682.611,313.812 676.939,308.31C676.016,307.415 673.117,311.065 671.753,311.52C670.425,311.964 672.126,311.882 671.184,312.52Z" style="fill:rgb(143,20,66);fill-rule:nonzero;stroke:black;stroke-width:1px;"/>
            <path d="M651.548,215.718C650.308,217.948 655.111,226.915 655.343,228.261C656.317,233.913 655.418,242.731 660.755,246.28C667.279,250.62 666.907,240.457 665.517,233.544C663.74,224.703 663.573,216.609 656.03,214.256C654.802,213.874 652.617,213.548 651.605,214.57C650.619,215.565 652.101,214.725 651.548,215.718Z" style="fill:rgb(143,20,66);fill-rule:nonzero;stroke:black;stroke-width:1px;"/>
            <path d="M406.253,297.656C404.626,295.69 397.509,295.53 396.171,295.257C390.551,294.112 379.679,291.451 374.434,295.134C368.021,299.636 378.079,315.478 385.025,316.694C393.907,318.249 401.056,308.536 405.987,302.362C406.79,301.358 407.887,299.44 407.302,298.126C406.733,296.846 406.978,298.532 406.253,297.656Z" style="fill:rgb(143,20,66);fill-rule:nonzero;stroke:black;stroke-width:1px;"/>
            <path d="M586.835,297.656C585.208,295.69 578.091,295.53 576.753,295.257C571.133,294.112 560.261,291.451 555.016,295.134C548.603,299.636 558.66,315.478 565.606,316.694C574.489,318.249 581.638,308.536 586.569,302.362C587.372,301.358 588.468,299.44 587.884,298.126C587.315,296.846 587.56,298.532 586.835,297.656Z" style="fill:rgb(143,20,66);fill-rule:nonzero;stroke:black;stroke-width:1px;"/>
            <path d="M495.795,393.882C494.169,391.917 489.828,385.418 488.49,385.145C482.87,384 469.222,387.678 463.976,391.361C459.955,394.183 462.41,401.464 466.512,406.803C468.952,409.979 471.976,412.467 474.567,412.921C479.371,413.762 483.667,411.307 487.38,407.9C490.533,405.006 493.265,401.424 495.53,398.589C496.332,397.584 497.429,395.667 496.845,394.353C496.276,393.073 496.52,394.758 495.795,393.882Z" style="fill:rgb(143,20,66);fill-rule:nonzero;stroke:black;stroke-width:1px;"/>
            <path d="M322.932,253.259C323.937,253.678 320.559,253.386 319.789,254.157C317.972,255.973 315.848,260.033 319.071,261.52C322.027,262.885 329.645,260.516 328.769,256.132C328.25,253.541 321.166,252.523 322.932,253.259Z" style="fill:rgb(143,20,66);fill-rule:nonzero;stroke:black;stroke-width:1px;"/>
            <path d="M486.647,254.389C487.653,254.809 484.275,254.517 483.504,255.287C481.688,257.104 479.563,261.163 482.786,262.651C485.743,264.015 493.361,261.647 492.484,257.263C491.966,254.671 484.882,253.653 486.647,254.389Z" style="fill:rgb(143,20,66);fill-rule:nonzero;stroke:black;stroke-width:1px;"/>
            <path d="M322.336,390.465C323.342,390.885 319.964,390.593 319.193,391.363C317.377,393.18 315.252,397.239 318.475,398.727C321.432,400.091 329.05,397.723 328.173,393.339C327.654,390.747 320.571,389.729 322.336,390.465Z" style="fill:rgb(143,20,66);fill-rule:nonzero;stroke:black;stroke-width:1px;"/>
            <path d="M324.444,360.42C325.449,360.839 322.071,360.548 321.301,361.318C319.484,363.135 317.36,367.194 320.583,368.681C323.539,370.046 331.157,367.677 330.28,363.294C329.762,360.702 322.678,359.684 324.444,360.42Z" style="fill:rgb(143,20,66);fill-rule:nonzero;stroke:black;stroke-width:1px;"/>
            <path d="M612.897,297.446C613.903,297.865 610.525,297.573 609.755,298.344C607.938,300.16 605.813,304.22 609.036,305.707C611.993,307.072 619.611,304.703 618.734,300.319C618.216,297.727 611.132,296.71 612.897,297.446Z" style="fill:rgb(143,20,66);fill-rule:nonzero;stroke:black;stroke-width:1px;"/>
            <path d="M658.237,370.267C659.243,370.687 655.865,370.395 655.095,371.165C653.278,372.982 645.256,380.908 648.479,382.396C651.436,383.76 664.951,377.525 664.074,373.141C663.556,370.549 656.472,369.531 658.237,370.267Z" style="fill:rgb(143,20,66);fill-rule:nonzero;stroke:black;stroke-width:1px;"/>
            <path d="M671.822,285.045C672.828,285.464 667.121,284.898 666.351,285.668C664.534,287.485 667.413,303.122 670.636,304.609C671.817,305.154 673.539,303.884 675.128,301.883C677.518,298.87 679.603,294.202 679.076,291.568C678.558,288.976 670.057,284.309 671.822,285.045Z" style="fill:rgb(143,20,66);fill-rule:nonzero;stroke:black;stroke-width:1px;"/>
            <path d="M490.748,364.972C491.754,365.391 486.047,364.825 485.277,365.595C483.46,367.412 486.339,383.048 489.562,384.536C490.743,385.081 492.465,383.811 494.054,381.809C496.444,378.797 498.529,374.128 498.003,371.494C497.484,368.903 488.983,364.236 490.748,364.972Z" style="fill:rgb(143,20,66);fill-rule:nonzero;stroke:black;stroke-width:1px;"/>
            <path d="M361.027,258.983C362.033,259.402 358.655,259.11 357.885,259.881C356.068,261.697 353.943,265.756 357.166,267.244C360.123,268.609 367.741,266.24 366.864,261.856C366.346,259.264 359.262,258.247 361.027,258.983Z" style="fill:rgb(143,20,66);fill-rule:nonzero;stroke:black;stroke-width:1px;"/>
            <path d="M488.301,336.639C489.307,337.059 485.929,336.767 485.158,337.537C483.342,339.354 481.217,343.413 484.44,344.901C487.397,346.265 495.015,343.897 494.138,339.513C493.619,336.921 486.536,335.903 488.301,336.639Z" style="fill:rgb(143,20,66);fill-rule:nonzero;stroke:black;stroke-width:1px;"/>
            <path d="M429.41,293.788C430.415,294.207 427.037,293.915 426.267,294.686C424.45,296.502 422.326,300.561 425.549,302.049C428.505,303.414 436.123,301.045 435.247,296.661C434.728,294.069 427.644,293.052 429.41,293.788Z" style="fill:rgb(143,20,66);fill-rule:nonzero;stroke:black;stroke-width:1px;"/>
            <path d="M618.112,253.852C619.118,254.272 615.74,253.98 614.969,254.75C613.153,256.567 611.028,260.626 614.251,262.114C617.208,263.478 624.826,261.11 623.949,256.726C623.431,254.134 616.347,253.116 618.112,253.852Z" style="fill:rgb(143,20,66);fill-rule:nonzero;stroke:black;stroke-width:1px;"/>
            <path d="M570.075,351.674C571.08,352.093 560.213,350.411 559.443,351.182C557.626,352.998 562.581,361.25 565.804,362.737C565.804,362.737 574.486,360.522 573.609,356.138C573.091,353.546 568.309,350.938 570.075,351.674Z" style="fill:rgb(143,20,66);fill-rule:nonzero;stroke:black;stroke-width:1px;"/>
            <path d="M671.278,199.199C672.284,199.618 668.906,199.326 668.135,200.097C666.319,201.913 664.194,205.972 667.417,207.46C670.374,208.825 677.992,206.456 677.115,202.072C676.597,199.48 669.513,198.463 671.278,199.199Z" style="fill:rgb(143,20,66);fill-rule:nonzero;stroke:black;stroke-width:1px;"/>
            <path d="M339.968,292.163C340.974,292.582 337.596,292.29 336.825,293.06C335.009,294.877 332.884,298.936 336.107,300.424C339.064,301.788 346.682,299.42 345.805,295.036C345.286,292.444 338.203,291.426 339.968,292.163Z" style="fill:rgb(143,20,66);fill-rule:nonzero;stroke:black;stroke-width:1px;"/>
            <path d="M514.784,291.654C515.789,292.073 512.411,291.781 511.641,292.552C509.824,294.368 507.7,298.428 510.923,299.915C513.879,301.28 521.497,298.911 520.62,294.527C520.102,291.936 513.018,290.918 514.784,291.654Z" style="fill:rgb(143,20,66);fill-rule:nonzero;stroke:black;stroke-width:1px;"/>
            <path d="M435.17,297.903C428.287,305.067 421.689,304.364 427.101,308.423C436.596,315.545 448.092,310.041 458.241,308.196C461.262,307.647 467.307,307.365 468.47,303.877C469.034,302.185 469.495,298.565 467.106,297.968C462.998,296.94 458.329,298.303 454.377,297.513C451.014,296.84 448.482,294.26 445.285,293.194C441.477,291.925 437.947,295.012 435.17,297.903Z" style="fill:rgb(143,20,66);fill-rule:nonzero;stroke:black;stroke-width:1px;"/>
            <path d="M427.625,398.45C420.742,405.614 414.144,404.911 419.556,408.97C429.051,416.092 440.547,410.588 450.696,408.743C453.717,408.194 460.763,414.274 461.926,410.786C462.49,409.094 461.95,399.112 459.561,398.514C455.453,397.487 455.766,397.959 451.814,397.169C451.814,397.169 440.937,394.807 437.74,393.741C433.932,392.472 430.402,395.559 427.625,398.45Z" style="fill:rgb(143,20,66);fill-rule:nonzero;stroke:black;stroke-width:1px;"/>
            <path d="M622.698,303.508C624.959,313.182 620.776,318.333 627.128,316.005C638.271,311.92 639.916,299.281 643.896,289.764C645.08,286.931 648.136,281.707 645.844,278.833C644.732,277.438 641.947,275.08 640.145,276.758C637.046,279.644 635.646,284.303 632.832,287.186C630.436,289.641 626.893,290.359 624.258,292.46C621.12,294.962 621.786,299.604 622.698,303.508Z" style="fill:rgb(143,20,66);fill-rule:nonzero;stroke:black;stroke-width:1px;"/>
            <path d="M614.916,368.624C614.916,368.624 612.048,377.751 618.804,377.4C630.657,376.785 627.697,383.286 634.307,375.367C636.275,373.01 649.429,357.705 648.087,354.283C647.436,352.622 645.47,349.547 643.253,350.619C639.441,352.462 637.132,357.195 633.591,359.12C630.578,360.758 626.578,359.703 623.44,360.933C619.703,362.398 615.197,364.626 614.916,368.624Z" style="fill:rgb(143,20,66);fill-rule:nonzero;stroke:black;stroke-width:1px;"/>
            <path d="M469.812,272.28C469.812,272.28 464.447,271.234 461.902,273.946C455.428,280.846 444.82,288.915 449.748,291.926C457.353,296.574 472.689,288.121 473.721,280.273C474.762,272.361 470.732,277.802 469.812,272.28Z" style="fill:rgb(143,20,66);fill-rule:nonzero;stroke:black;stroke-width:1px;"/>
            <path d="M651.443,268.245C651.443,268.245 648.445,260.342 644.75,259.918C635.35,258.839 623.182,258.114 623.706,263.865C624.514,272.741 640.447,280.005 647.361,276.151C654.332,272.266 647.561,272.279 651.443,268.245Z" style="fill:rgb(143,20,66);fill-rule:nonzero;stroke:black;stroke-width:1px;"/>
            <path d="M415.692,347.087C415.692,347.087 414.72,339.672 411.116,340.592C401.957,342.929 386.063,340.399 386.915,346.111C388.23,354.926 405.388,359.457 412.07,355.214C418.806,350.936 412.047,351.336 415.692,347.087Z" style="fill:rgb(143,20,66);fill-rule:nonzero;stroke:black;stroke-width:1px;"/>
            <path d="M590.206,344.133C590.206,344.133 589.234,336.718 585.63,337.638C576.471,339.975 560.578,337.446 561.43,343.157C562.745,351.973 579.902,356.504 586.584,352.26C593.32,347.982 586.561,348.383 590.206,344.133Z" style="fill:rgb(143,20,66);fill-rule:nonzero;stroke:black;stroke-width:1px;"/>
            <path d="M574.069,366.676C574.069,366.676 573.096,359.261 569.493,360.181C560.334,362.518 544.44,359.988 545.292,365.7C546.607,374.515 563.764,379.047 570.446,374.803C577.183,370.525 570.424,370.925 574.069,366.676Z" style="fill:rgb(143,20,66);fill-rule:nonzero;stroke:black;stroke-width:1px;"/>
            <path d="M319.413,349.461C319.413,349.461 320.233,354.866 323.644,356.35C332.32,360.125 341.434,366.658 342.612,361.004C344.43,352.279 333.363,341.422 325.625,343.091C317.824,344.772 324.304,346.736 319.413,349.461Z" style="fill:rgb(143,20,66);fill-rule:nonzero;stroke:black;stroke-width:1px;"/>
            <path d="M486.836,328.99C486.836,328.99 487.656,334.394 491.067,335.878C499.743,339.653 508.857,346.187 510.035,340.533C511.852,331.807 500.785,320.951 493.048,322.619C485.247,324.301 491.727,326.265 486.836,328.99Z" style="fill:rgb(143,20,66);fill-rule:nonzero;stroke:black;stroke-width:1px;"/>
            <path d="M430.397,341.841C430.397,341.841 431.218,347.246 434.628,348.73C443.304,352.505 454.471,359.779 455.649,354.125C457.467,345.4 444.347,333.802 436.609,335.471C428.808,337.152 435.288,339.116 430.397,341.841Z" style="fill:rgb(143,20,66);fill-rule:nonzero;stroke:black;stroke-width:1px;"/>
            <path d="M620.052,398.726C620.052,398.726 620.873,404.13 624.283,405.614C632.959,409.389 644.126,416.664 645.304,411.01C647.122,402.285 634.002,390.687 626.264,392.355C618.463,394.037 624.943,396.001 620.052,398.726Z" style="fill:rgb(143,20,66);fill-rule:nonzero;stroke:black;stroke-width:1px;"/>
            <path d="M607.368,340.24C607.368,340.24 608.189,345.644 611.599,347.128C620.275,350.903 633.129,354.322 634.307,348.668C636.125,339.942 621.318,332.201 613.58,333.869C605.779,335.551 612.259,337.515 607.368,340.24Z" style="fill:rgb(143,20,66);fill-rule:nonzero;stroke:black;stroke-width:1px;"/>
            <path d="M380.218,334.143C375.253,334.662 374.185,338.926 371.554,343.663C371.254,344.203 371.497,344.124 372.037,344.424C373.959,345.492 378.489,345.545 380.602,345.714C383.062,345.911 385.507,343.815 385.507,343.815C385.507,343.815 391.318,338.871 390.745,336.809C390.081,334.419 386.772,333.458 380.218,334.143Z" style="fill:rgb(143,20,66);fill-rule:nonzero;stroke:black;stroke-width:1px;"/>
            <path d="M558.778,329.262C553.813,329.781 552.745,334.044 550.113,338.781C549.813,339.321 550.057,339.243 550.596,339.543C552.519,340.611 557.049,340.664 559.162,340.833C561.622,341.03 564.066,338.934 564.066,338.934C564.066,338.934 569.878,333.99 569.305,331.927C568.641,329.538 565.331,328.576 558.778,329.262Z" style="fill:rgb(143,20,66);fill-rule:nonzero;stroke:black;stroke-width:1px;"/>
            <path d="M666.357,235.238C664.79,239.978 668.239,242.703 671.477,247.049C671.846,247.544 671.874,247.29 672.369,246.921C674.133,245.607 676.042,241.499 677.064,239.642C678.254,237.48 677.347,234.39 677.347,234.39C677.347,234.39 675.227,227.06 673.111,226.736C670.66,226.359 668.424,228.982 666.357,235.238Z" style="fill:rgb(143,20,66);fill-rule:nonzero;stroke:black;stroke-width:1px;"/>
            <path d="M655.919,323.885C651.876,326.521 651.111,330.757 648.479,335.494C648.479,335.494 650.904,338.758 651.443,339.058C653.366,340.126 655.414,337.377 657.527,337.546C659.988,337.743 662.432,335.647 662.432,335.647C662.432,335.647 665.224,327.011 664.651,324.949C663.987,322.56 659.962,321.248 655.919,323.885Z" style="fill:rgb(143,20,66);fill-rule:nonzero;stroke:black;stroke-width:1px;"/>
            <path d="M462.43,350.137C453.101,340.06 449.264,340.064 446.52,337.763C441.342,333.42 442.111,330.786 440.062,323.199C437.352,313.158 444.323,309.245 453.427,312.735C456.518,313.92 459.754,316.873 461.62,319.526C465.888,325.593 469.792,326.301 468.922,333.927C468.7,335.879 472.082,350.689 469.99,350.45C469.076,350.346 463.525,351.32 462.43,350.137Z" style="fill:rgb(143,20,66);fill-rule:nonzero;stroke:black;stroke-width:1px;"/>
            <path d="M520.323,410.194C510.994,400.117 506.751,406.599 504.007,404.298C498.829,399.956 500.004,390.843 497.955,383.256C495.244,373.215 502.216,369.302 511.319,372.792C514.411,373.977 517.646,376.93 519.513,379.583C523.781,385.65 532.737,391.486 531.867,399.112C531.644,401.064 529.975,410.746 527.882,410.507C526.969,410.403 521.417,411.377 520.323,410.194Z" style="fill:rgb(143,20,66);fill-rule:nonzero;stroke:black;stroke-width:1px;"/>
            <path d="M643.012,350.137C633.683,340.06 629.846,340.064 627.102,337.763C621.923,333.42 622.693,330.786 620.644,323.199C617.933,313.158 624.905,309.245 634.008,312.735C637.1,313.92 640.335,316.873 642.202,319.526C646.47,325.593 650.374,326.301 649.504,333.927C649.281,335.879 652.664,350.689 650.571,350.45C649.658,350.346 644.106,351.32 643.012,350.137Z" style="fill:rgb(143,20,66);fill-rule:nonzero;stroke:black;stroke-width:1px;"/>
        </g>
        <g id="Sep">
            <rect x="235.63" y="197.729" width="81.177" height="216.542" style="fill:white;fill-rule:nonzero;stroke:rgb(0,0,2);stroke-width:1px;"/>
            <path d="M240.728,203.35C217.067,203.35 335.369,203.139 311.709,203.139" style="fill:none;fill-rule:nonzero;stroke:rgb(216,216,216);stroke-width:1px;"/>
            <path d="M240.728,317.105C217.067,317.105 335.369,316.894 311.709,316.894" style="fill:none;fill-rule:nonzero;stroke:rgb(216,216,216);stroke-width:1px;"/>
            <path d="M240.728,259.165C217.067,259.165 335.369,258.954 311.709,258.954" style="fill:none;fill-rule:nonzero;stroke:rgb(216,216,216);stroke-width:1px;"/>
            <path d="M240.728,372.92C217.067,372.92 335.369,372.709 311.709,372.709" style="fill:none;fill-rule:nonzero;stroke:rgb(216,216,216);stroke-width:1px;"/>
            <path d="M241.042,377.02C217.381,377.02 335.683,376.809 312.023,376.809" style="fill:none;fill-rule:nonzero;stroke:rgb(216,216,216);stroke-width:1px;"/>
            <path d="M240.728,366.068C217.067,366.068 335.369,365.857 311.709,365.857" style="fill:none;fill-rule:nonzero;stroke:rgb(216,216,216);stroke-width:1px;"/>
            <path d="M240.728,308.128C217.067,308.128 335.369,307.917 311.709,307.917" style="fill:none;fill-rule:nonzero;stroke:rgb(216,216,216);stroke-width:1px;"/>
            <path d="M240.728,211.508C217.067,211.508 335.369,211.297 311.709,211.297" style="fill:none;fill-rule:nonzero;stroke:rgb(216,216,216);stroke-width:1px;"/>
            <path d="M240.728,325.263C217.067,325.263 335.369,325.052 311.709,325.052" style="fill:none;fill-rule:nonzero;stroke:rgb(216,216,216);stroke-width:1px;"/>
            <path d="M240.728,267.323C235.256,267.323 237.377,267.312 243.578,267.294C264.192,267.237 329.897,267.112 311.709,267.112" style="fill:none;fill-rule:nonzero;stroke:rgb(216,216,216);stroke-width:1px;"/>
            <path d="M241.042,383.667C217.381,383.667 335.683,383.456 312.023,383.456" style="fill:none;fill-rule:nonzero;stroke:rgb(216,216,216);stroke-width:1px;"/>
            <path d="M241.042,271.907C217.381,271.907 335.683,271.696 312.023,271.696" style="fill:none;fill-rule:nonzero;stroke:rgb(216,216,216);stroke-width:1px;"/>
            <path d="M240.728,235.74C217.067,235.74 335.369,235.529 311.709,235.529" style="fill:none;fill-rule:nonzero;stroke:rgb(216,216,216);stroke-width:1px;"/>
            <path d="M240.728,291.555C217.067,291.555 335.369,291.344 311.709,291.344" style="fill:none;fill-rule:nonzero;stroke:rgb(216,216,216);stroke-width:1px;"/>
            <path d="M240.728,405.31C217.067,405.31 335.369,405.099 311.709,405.099" style="fill:none;fill-rule:nonzero;stroke:rgb(216,216,216);stroke-width:1px;"/>
            <path d="M241.042,296.035C217.381,296.035 335.683,295.823 312.023,295.823" style="fill:none;fill-rule:nonzero;stroke:rgb(216,216,216);stroke-width:1px;"/>
            <path d="M240.728,411.644C217.067,411.644 335.369,411.433 311.709,411.433" style="fill:none;fill-rule:nonzero;stroke:rgb(216,216,216);stroke-width:1px;"/>
            <path d="M240.728,232.419C236.938,232.419 236.79,232.414 239.118,232.404C251.324,232.357 331.579,232.208 311.709,232.208" style="fill:none;fill-rule:nonzero;stroke:rgb(216,216,216);stroke-width:1px;"/>
            <path d="M240.728,346.174C217.067,346.174 335.369,345.963 311.709,345.963" style="fill:none;fill-rule:nonzero;stroke:rgb(216,216,216);stroke-width:1px;"/>
            <path d="M240.728,288.234C237.302,288.234 236.852,288.23 238.516,288.222C248.345,288.177 331.944,288.023 311.709,288.023" style="fill:none;fill-rule:nonzero;stroke:rgb(216,216,216);stroke-width:1px;"/>
            <path d="M240.728,401.989C217.067,401.989 335.369,401.778 311.709,401.778" style="fill:none;fill-rule:nonzero;stroke:rgb(216,216,216);stroke-width:1px;"/>
            <path d="M240.728,245.476C217.067,245.476 335.369,245.265 311.709,245.265" style="fill:none;fill-rule:nonzero;stroke:rgb(216,216,216);stroke-width:1px;"/>
            <path d="M240.728,359.231C217.067,359.231 335.369,359.02 311.709,359.02" style="fill:none;fill-rule:nonzero;stroke:rgb(216,216,216);stroke-width:1px;"/>
            <path d="M241.042,312.779C217.381,312.779 335.683,312.568 312.023,312.568" style="fill:none;fill-rule:nonzero;stroke:rgb(216,216,216);stroke-width:1px;"/>
            <path d="M241.042,221.805C217.381,221.805 335.683,221.593 312.023,221.593" style="fill:none;fill-rule:nonzero;stroke:rgb(216,216,216);stroke-width:1px;"/>
            <path d="M241.042,335.56C217.381,335.56 335.683,335.348 312.023,335.348" style="fill:none;fill-rule:nonzero;stroke:rgb(216,216,216);stroke-width:1px;"/>
            <path d="M241.042,277.62C238.066,277.62 237.336,277.616 238.286,277.61C244.89,277.57 332.708,277.408 312.023,277.408" style="fill:none;fill-rule:nonzero;stroke:rgb(216,216,216);stroke-width:1px;"/>
            <path d="M241.042,391.374C217.381,391.374 335.683,391.163 312.023,391.163" style="fill:none;fill-rule:nonzero;stroke:rgb(216,216,216);stroke-width:1px;"/>
            <path d="M240.728,339.275C217.067,339.275 335.369,339.064 311.709,339.064" style="fill:none;fill-rule:nonzero;stroke:rgb(216,216,216);stroke-width:1px;"/>
            <path d="M240.728,281.335C217.067,281.335 335.369,281.124 311.709,281.124" style="fill:none;fill-rule:nonzero;stroke:rgb(216,216,216);stroke-width:1px;"/>
            <path d="M240.728,304.88C217.067,304.88 335.369,304.668 311.709,304.668" style="fill:none;fill-rule:nonzero;stroke:rgb(216,216,216);stroke-width:1px;"/>
            <path d="M241.042,254.926C217.381,254.926 335.683,254.715 312.023,254.715" style="fill:none;fill-rule:nonzero;stroke:rgb(216,216,216);stroke-width:1px;"/>
        </g>
        <g id="Neg">
            <rect x="111.678" y="197.729" width="123.952" height="216.542" style="fill:rgb(233,255,216);fill-rule:nonzero;stroke:black;stroke-width:1.13px;stroke-linecap:butt;"/>
            <path d="M112.459,197.916C112.998,200.404 113.303,202.965 113.303,205.614C113.303,225.14 112.846,279.201 112.834,280.528C112.556,310.483 112.428,327.007 112.428,345.24C112.428,353.031 112.001,381.488 111.959,384.762C111.888,390.254 111.868,399.036 111.865,398.938C111.866,398.97 111.956,400.843 111.959,400.909C112.073,403.326 112.12,405.191 112.115,407.293C112.109,409.776 111.895,412.007 111.678,414.271L188.74,414.271C188.114,412.081 187.682,409.846 187.334,407.575C186.262,407.858 185.097,407.739 184.084,407.105C182.142,405.89 181.558,403.323 182.771,401.379C182.985,401.037 184.264,398.982 184.553,398.5C185.077,397.625 185.88,397.115 186.771,396.81C186.764,394.14 186.637,391.631 186.834,388.611C186.136,388.143 185.527,387.522 185.209,386.671C184.183,383.933 184.06,381.095 184.678,378.003C185.009,376.342 186.313,375.128 187.865,374.78C188.182,371.043 188.553,367.275 188.553,364.767C188.553,363.28 188.292,361.303 187.896,359.04C187.013,359.525 185.941,359.69 184.896,359.447C184.625,359.62 184.19,359.874 184.021,359.979C182.08,361.194 179.516,360.609 178.303,358.665C177.089,356.72 177.673,354.153 179.615,352.938C179.772,352.84 180.436,352.424 180.615,352.312C181.071,352.029 181.464,351.811 181.896,351.624C181.919,351.301 181.947,351.002 182.021,350.654C182.214,349.753 182.601,348.906 183.271,348.182C183.888,347.516 184.62,347.1 185.459,346.774C184.824,342.971 185.068,338.477 185.803,332.723C183.847,332.128 182.32,330.604 181.74,328.655C181.048,328.727 180.348,328.745 179.615,328.562C177.394,328.005 176.028,325.748 176.584,323.524C177.035,321.716 178.631,320.557 180.396,320.457C180.528,320.318 180.637,320.185 180.646,320.175C181.643,319.11 182.207,318.608 183.209,318.079C184.053,317.633 184.941,317.392 185.865,317.359C185.958,317.356 186.053,317.421 186.146,317.422C186.793,316.752 187.415,316.079 188.178,315.388C188.193,315.188 188.321,314.459 188.334,314.261C188.575,310.396 188.356,306.136 187.678,300.743C187.663,300.623 187.63,300.423 187.615,300.305C185.921,300.913 184.001,300.859 182.365,299.835C179.203,297.856 177.57,294.569 179.146,290.948C179.132,290.911 179.097,290.893 179.084,290.854C178.289,288.565 178.839,286.223 180.24,284.44C181.28,283.116 182.86,282.152 185.021,281.123C184.847,279.554 184.417,277.096 184.303,275.49C183.951,270.556 184.067,266.802 184.553,259.531C184.564,259.36 184.572,259.357 184.584,259.187C185.105,251.394 185.075,247.751 184.49,243.447C183.795,243.531 183.117,243.671 182.334,243.541C180.075,243.164 178.551,241.015 178.928,238.753C179.304,236.491 181.45,234.965 183.709,235.342C183.661,235.334 183.629,235.337 183.896,235.279C183.952,235.267 183.958,235.262 184.021,235.248C184.033,235.246 184.041,235.251 184.053,235.248C184.182,232.308 184.588,228.498 185.303,222.324C185.568,220.033 185.747,218.517 185.896,217.005C186.333,212.583 186.384,209.419 186.24,206.803C185.731,206.835 185.221,206.943 184.709,206.772C182.537,206.047 181.36,203.69 182.084,201.515C182.119,201.409 182.259,200.936 182.271,200.889C182.358,200.572 182.434,200.333 182.584,200.013C182.698,199.769 182.99,199.615 183.146,199.387C182.884,198.9 182.58,198.427 182.365,197.916L112.459,197.916Z" style="fill:rgb(200,200,199);fill-rule:nonzero;"/>
            <path d="M186.455,210.955C183.387,210.955 189.103,210.231 190.053,210.173C191.581,210.08 193.571,208.063 194.59,207.044C195.64,205.994 196.444,203.179 197.563,202.507C201.215,200.316 206.387,202.491 210.079,201.568C210.951,201.35 212.132,200.63 213.051,200.63C215.196,200.63 217.529,203.725 215.398,205.323C214.876,205.714 203.171,208.44 206.011,209.86C210.659,212.184 217.505,206.056 222.282,208.921C224.214,210.081 223.127,212.286 224.315,213.771C224.798,214.374 227.536,215.035 227.444,215.492C227.23,216.565 225.964,217.25 225.567,218.308C225.099,219.557 225.465,221.695 224.472,222.689C221.097,226.064 213.146,224.476 209.453,222.532C207.707,221.613 206.897,219.388 205.229,218.308C203.692,217.314 201.854,216.777 200.223,215.962C199.518,215.609 199.575,214.598 198.971,214.397C197.635,213.952 195.049,215.572 193.652,215.805C192.882,215.933 192.731,214.737 192.087,214.553C190.201,214.014 189.534,215.214 187.863,215.492C187.458,215.56 185.777,215.232 185.517,215.492C185.302,215.707 185.89,215.986 185.986,216.274" style="fill:rgb(200,200,200);fill-rule:nonzero;stroke:rgb(91,146,36);stroke-width:2.21px;"/>
            <path d="M184.848,223.185C187.028,222.095 189.018,223.602 191.106,223.185C193.076,222.791 196.968,221.579 198.929,222.559C199.46,222.825 199.706,223.684 200.337,223.81C201.348,224.013 202.341,223.518 203.309,224.123C204.18,224.667 204.395,226.085 205.343,226.626C206.145,227.085 208.953,227.803 209.88,228.034C211.252,228.378 216.838,227.081 217.389,229.286C217.695,230.507 214.651,230.506 213.947,230.694C209.47,231.888 205.034,230.381 200.493,230.381C200.277,230.381 194.95,230.627 195.33,231.007C200.624,236.301 219.975,231.381 224.429,237.108C228.5,242.342 217.022,243.933 213.791,244.148C208.899,244.475 202.407,238.683 197.99,237.421C194.542,236.436 191.321,236.005 187.821,234.605C186.485,234.071 184.211,235.387 183.753,235.387" style="fill:rgb(200,200,200);fill-rule:nonzero;stroke:rgb(91,146,36);stroke-width:2.21px;"/>
            <path d="M183.137,243.419C182.597,242.339 186.983,242.526 188.143,243.106C190.416,244.242 191.142,248.277 192.993,248.894C194.887,249.526 207.699,245.58 207.699,249.051C207.699,250.302 205.726,252.432 204.883,253.275C200.545,257.613 195.757,259.602 189.864,261.567C188.584,261.993 186.274,261.991 185.171,262.818C185.05,262.909 184.941,263.297 185.014,263.444C186.232,265.88 182.328,265.964 184.076,268.294" style="fill:rgb(200,200,200);fill-rule:nonzero;stroke:rgb(91,146,36);stroke-width:2.21px;"/>
            <path d="M186.798,303.298C185.693,303.298 189.008,303.202 190.112,303.154C192.764,303.038 193.161,301.897 192.85,299.407C192.223,294.389 188.615,275.778 196.74,275.778C200.878,275.778 196.658,284.709 196.884,286.296C197.044,287.414 198.315,287.811 198.469,288.889C198.611,289.878 196.472,292.435 198.325,292.203C202.269,291.71 206.252,285.136 207.114,281.685C207.485,280.202 206.94,278.634 207.547,277.218C208.842,274.195 211.234,272.157 213.166,269.582C214.674,267.57 218.554,263.83 221.379,264.395C224.365,264.992 221.198,269.473 220.37,270.59C217.331,274.694 212.946,279.608 211.437,284.134C211.36,284.366 214.696,284.14 214.751,284.134C216.239,283.986 220.18,284.51 219.506,286.872C218.851,289.163 212.895,290.096 211.005,290.474C210.772,290.521 207.363,292 207.402,292.059C207.76,292.596 212.471,291.915 213.022,291.915C216.649,291.915 221.052,290.551 224.116,288.601C225.956,287.43 227.278,285.029 229.591,284.567C231.528,284.179 234.705,284.203 235.499,286.584C236.574,289.81 230.676,289.595 230.312,291.05C230.12,291.817 231.249,291.299 231.032,292.059C230.572,293.67 226.588,294.556 225.269,294.076C225.086,294.01 223.756,293.014 223.54,293.068C223.149,293.165 221.871,295.802 221.523,296.382C219.792,299.266 236.446,302.964 233.626,307.476C232.855,308.709 230.299,308.307 229.159,308.341C227.334,308.394 225.393,309.126 223.684,308.485C219.255,306.824 216.369,301.026 211.005,302.001C208.887,302.386 210.408,304.615 209.276,305.747C208.147,306.875 204.089,307.907 204.089,309.781C204.089,311.192 206.494,312.263 205.385,313.816C203.392,316.607 196.173,310.56 193.138,310.358C192.233,310.297 183.523,311.44 185.358,312.663" style="fill:rgb(200,200,200);fill-rule:nonzero;stroke:rgb(91,146,36);stroke-width:2.21px;"/>
            <path d="M187.823,362.075C186.497,359.423 191.132,365.662 191.299,365.734C192.45,366.227 194.446,365.533 195.507,365.002C198.041,363.735 199.655,360.976 202.093,359.514C205.137,357.687 218.724,355.838 221.485,358.599C222.657,359.771 221.568,361.407 222.034,362.807C222.424,363.976 224.047,363.788 224.047,365.368C224.047,367.279 211.845,374.644 209.045,374.332C207.501,374.161 203.334,369.205 202.642,369.759C200.699,371.313 203.482,374.212 204.654,375.064C208.858,378.121 216.472,391.339 208.679,394.457C203.764,396.423 197.699,384.386 196.422,380.553C195.96,379.168 195.787,375.987 194.958,374.881C193.963,373.555 194.044,381.834 191.116,380.37C188.411,379.017 190.553,375.821 188.921,374.515C187.838,373.649 182.798,372.927 186.359,375.064" style="fill:rgb(200,200,200);fill-rule:nonzero;stroke:rgb(91,146,36);stroke-width:2.21px;"/>
            <path d="M188.246,388.342C186.041,386.136 191.431,387.314 192.258,388.141C193.266,389.149 191.357,390.884 191.857,391.551C192.653,392.612 197.273,393.53 197.273,395.362C197.273,396.843 193.662,396.809 193.662,398.772C193.662,399.976 194.929,400.165 195.267,401.179C195.831,402.87 193.23,406.225 192.058,407.397C189.628,409.827 184.714,404.397 184.034,402.583C184.015,402.531 184.858,394.984 182.63,397.769C182.328,398.146 182.284,399.264 182.028,399.775" style="fill:rgb(200,200,200);fill-rule:nonzero;stroke:rgb(91,146,36);stroke-width:2.21px;"/>
            <path d="M184.435,270.599C183.491,268.711 187.188,269.554 188.046,270.198C188.805,270.767 188.435,271.869 189.049,272.605C189.665,273.344 192.332,272.695 191.055,274.61C190.208,275.88 189.165,276.439 188.848,278.02C188.631,279.106 189.64,279.839 188.848,280.829C187.965,281.932 186.711,282.548 185.839,283.637C185.746,283.753 185.639,283.888 185.639,284.038C185.639,285.216 188.365,285.577 186.842,286.846C185.739,287.765 180.825,289.89 180.825,287.849C180.825,287.159 180.069,286.622 180.825,286.244" style="fill:rgb(200,200,200);fill-rule:nonzero;stroke:rgb(91,146,36);stroke-width:2.21px;"/>
            <path d="M191.904,319.21C189.189,318.964 187.061,320.649 185.923,322.925C185.455,323.861 188.288,323.443 187.917,324.556C187.85,324.757 183.49,330.164 184.835,330.356C190.195,331.122 200.942,320.026 191.904,319.21Z" style="fill:rgb(200,200,200);fill-rule:nonzero;stroke:rgb(91,146,36);stroke-width:2.21px;"/>
            <path d="M221.725,328.347C222.567,331.714 218.647,334.461 219.369,337.591C219.678,338.929 221.754,339.15 222.45,340.31C223.187,341.537 222.187,348.031 226.619,342.122C227.957,340.338 229.13,332.618 228.431,330.522C228.044,329.361 222.266,325.81 225.531,325.81" style="fill:rgb(200,200,200);fill-rule:nonzero;stroke:rgb(91,146,36);stroke-width:2.21px;"/>
            <path d="M198.005,261.74C197.017,261.561 199.87,260.993 200.815,260.652C204.193,259.432 208.349,256.741 209.152,261.559C209.153,261.565 209.454,263.249 209.333,263.552C207.77,267.461 194.192,271.963 191.209,270.258C186.345,267.479 192.847,264.102 195.015,262.827C195.926,262.291 197.56,260.154 197.733,261.196C197.806,261.63 198.592,261.846 198.005,261.74Z" style="fill:rgb(200,200,200);fill-rule:nonzero;stroke:rgb(91,146,36);stroke-width:2.21px;"/>
            <path d="M211.633,245.973C212.467,246.281 210.618,247.644 210.818,248.51C211.219,250.248 212.414,251.707 213.355,253.223C215.136,256.092 227.858,261.326 229.848,256.847C231.734,252.605 226.636,252.122 226.224,249.235C226.059,248.087 231.88,244.673 228.58,243.435C219.745,240.122 223.371,250.921 222.236,251.048C216.165,251.722 220.159,246.409 217.886,244.704C215.902,243.216 208.471,244.803 211.633,245.973Z" style="fill:rgb(200,200,200);fill-rule:nonzero;stroke:rgb(91,146,36);stroke-width:2.21px;"/>
            <path d="M225.526,226.542C224.518,226.556 220.924,229.831 221.176,231.345C221.262,231.863 225.554,231.115 226.07,231.889C226.261,232.176 224.386,233.339 225.888,233.339C229.059,233.339 231.139,226.463 225.526,226.542Z" style="fill:rgb(200,200,200);fill-rule:nonzero;stroke:rgb(91,146,36);stroke-width:2.21px;"/>
            <path d="M228.069,269.706C226.398,269.829 222.46,271.212 222.813,273.331C222.988,274.379 225.177,273.015 225.35,274.055C225.444,274.621 223.656,276.74 224.806,276.412C228.346,275.4 233.446,269.307 228.069,269.706Z" style="fill:rgb(200,200,200);fill-rule:nonzero;stroke:rgb(91,146,36);stroke-width:2.21px;"/>
            <path d="M205.56,397.511C203.266,399.18 201.472,399.674 198.945,401.589C198.02,402.29 196.683,402.697 196.226,403.764C195.13,406.322 198.47,405.174 198.147,407.756C198.086,408.247 196.506,412.738 198.945,413.551C201.511,414.407 204.637,414.374 207.282,414.095C213.515,413.439 217.338,407.13 213.988,401.77C212.672,399.665 209.878,399.585 208.007,398.146C207.35,397.64 206.48,395.608 205.651,395.608C204.504,395.608 206.061,397.146 205.56,397.511Z" style="fill:rgb(200,200,200);fill-rule:nonzero;stroke:rgb(91,146,36);stroke-width:2.21px;"/>
            <path d="M214.089,350.94C214.089,349.15 228.831,342.61 229.857,348.765C230.027,349.783 228.931,350.207 228.407,350.94C224.548,356.343 220.154,352.422 215.357,354.021C214.465,354.319 210.615,356.604 209.739,355.29C207.647,352.152 214.823,347.678 217.532,347.678" style="fill:rgb(200,200,200);fill-rule:nonzero;stroke:rgb(91,146,36);stroke-width:2.21px;"/>
            <path d="M220.002,375.195C218.248,374.193 217.316,377.908 216.83,379.364C215.584,383.103 212.614,397.272 220.455,396.401C225.485,395.842 222.313,386.526 222.812,383.533C223.266,380.804 230.123,368.25 229.699,367.402C228.135,364.275 220.4,375.422 220.002,375.195Z" style="fill:rgb(200,200,200);fill-rule:nonzero;stroke:rgb(91,146,36);stroke-width:2.21px;"/>
            <path d="M210.425,309.63C209.934,310.093 206.275,312.389 207.254,313.074C208.494,313.942 209.703,313.329 210.879,313.799C211.965,314.233 211.549,316.849 213.416,315.249C216.28,312.794 212.935,307.272 210.425,309.63Z" style="fill:rgb(200,200,200);fill-rule:nonzero;stroke:rgb(91,146,36);stroke-width:2.21px;"/>
            <path d="M223.96,202.659C224.472,202.147 226.169,201.935 226.135,202.659C226.06,204.229 224.517,205.451 224.322,207.009C224.129,208.554 227.778,215.576 230.485,214.803C233.151,214.041 235.43,209.236 233.203,207.009C231.83,205.636 229.426,205.422 228.31,203.747C227.168,202.035 231.867,201.972 229.578,199.397C228.919,198.656 226.749,198.853 225.772,198.853" style="fill:rgb(200,200,200);fill-rule:nonzero;stroke:rgb(91,146,36);stroke-width:2.21px;"/>
            <path d="M220.523,399.332C219.77,401.223 217.17,403.187 217.17,405.404C217.17,405.742 218.846,405.946 218.982,406.492C219.685,409.303 216.193,412.291 221.882,412.291C235.461,412.291 222.348,394.749 220.523,399.332Z" style="fill:rgb(200,200,200);fill-rule:nonzero;stroke:rgb(91,146,36);stroke-width:2.21px;"/>
            <path d="M221.309,310.25C218.956,311.375 217.867,312.754 216.778,315.053C216.028,316.638 218.572,316.439 218.953,317.772C219.508,319.713 216.422,323.633 220.403,324.297C221.828,324.534 222.942,324.079 224.209,323.572C229.272,321.547 224.878,318.853 223.847,315.416C223.491,314.231 224.298,311.132 223.665,310.341C222.417,308.78 222.06,309.891 221.309,310.25Z" style="fill:rgb(200,200,200);fill-rule:nonzero;stroke:rgb(91,146,36);stroke-width:2.21px;"/>
            <path d="M227.182,356.048C226.335,356.15 224.355,358.336 225.098,359.492C225.621,360.305 228.357,358.594 227.998,359.492C227.199,361.488 227.292,361.345 229.266,360.217C231.073,359.184 228.396,355.903 227.182,356.048Z" style="fill:rgb(200,200,200);fill-rule:nonzero;stroke:rgb(91,146,36);stroke-width:2.21px;"/>
            <path d="M187.832,351.538C186.466,351.714 186.975,351.214 185.839,353.26C184.086,356.414 187.61,354.762 188.557,356.341C189.009,357.093 188.354,358.784 189.826,358.154C192.802,356.878 188.642,351.434 187.832,351.538Z" style="fill:rgb(200,200,200);fill-rule:nonzero;stroke:rgb(91,146,36);stroke-width:2.21px;"/>
            <path d="M202.966,351.447C201.779,352.481 199.069,354.041 198.888,354.347C198.488,355.026 200.252,355.144 200.882,355.616C201.65,356.192 200.185,356.983 200.52,357.429C201.963,359.354 204.956,353.979 203.601,352.172C203.046,351.433 203.788,350.732 202.966,351.447Z" style="fill:rgb(200,200,200);fill-rule:nonzero;stroke:rgb(91,146,36);stroke-width:2.21px;"/>
            <path d="M227.274,394.359C226.027,394.585 225.778,394.183 225.19,396.534C225.069,397.018 226.64,396.399 226.64,396.897C226.64,397.357 225.685,397.96 226.096,398.165C227.719,398.977 230.222,393.825 227.274,394.359Z" style="fill:rgb(91,146,36);fill-rule:nonzero;stroke:rgb(91,146,36);stroke-width:2.21px;"/>
            <path d="M202.966,277.318C203.252,277.138 201.663,277.278 201.969,277.137C202.637,276.829 203.487,276.445 204.144,276.774C204.854,277.129 202.419,277.664 202.966,277.318Z" style="fill:rgb(91,146,36);fill-rule:nonzero;stroke:rgb(91,146,36);stroke-width:2.21px;"/>
            <path d="M221.907,281.487C227.884,279.779 218.268,284.388 225.531,283.48C227.754,283.202 227.105,280.976 228.431,280.218C228.869,279.968 232.322,278.574 232.238,278.405C231.947,277.823 231.029,277.922 230.425,277.68" style="fill:rgb(91,146,36);fill-rule:nonzero;stroke:rgb(91,146,36);stroke-width:2.21px;"/>
            <path d="M195.988,239.891C191.927,241.842 199.414,244.408 199.976,243.425C200.984,241.661 198.813,240.454 197.62,239.619C197.11,239.262 195.366,238.713 195.988,238.713C196.828,238.713 196.697,239.55 195.988,239.891Z" style="fill:rgb(91,146,36);fill-rule:nonzero;stroke:rgb(91,146,36);stroke-width:2.21px;"/>
            <path d="M229.761,235.513C229.469,235.898 228.764,235.343 228.311,235.513C227.993,235.632 228.733,236.848 228.674,237.144C228.501,238.006 227.436,238.625 228.311,239.5C229.685,240.874 233.99,240.627 234.655,238.413C235.426,235.841 230.389,234.685 229.761,235.513Z" style="fill:rgb(91,146,36);fill-rule:nonzero;stroke:rgb(91,146,36);stroke-width:2.21px;"/>
            <path d="M196.441,384.797C196.752,385.754 195.643,383.647 196.351,384.072C197.563,384.799 195.613,386.596 195.445,386.428C194.68,385.663 196.015,383.484 196.441,384.797Z" style="fill:rgb(91,146,36);fill-rule:nonzero;stroke:rgb(91,146,36);stroke-width:2.21px;"/>
            <path d="M199.341,391.14C204.367,396.911 197.427,391.545 199.795,395.49C200.882,397.303 202.207,395.647 201.969,394.222C201.78,393.082 196.952,388.397 199.341,391.14Z" style="fill:rgb(91,146,36);fill-rule:nonzero;stroke:rgb(91,146,36);stroke-width:2.21px;"/>
            <path d="M231.48,316.999C231.48,316.695 230.443,317.182 230.574,316.908C231,316.022 233.263,315.429 232.568,314.733C231.841,314.007 230.722,315.643 229.849,316.183C226.482,318.268 228.296,318.922 230.212,321.077C230.301,321.178 230.265,321.482 230.393,321.439C230.782,321.31 231.977,319.101 232.205,318.721C232.414,318.373 233.097,317.842 232.749,317.633C232.076,317.229 231.48,317.702 231.48,316.999Z" style="fill:rgb(91,146,36);fill-rule:nonzero;stroke:rgb(91,146,36);stroke-width:2.21px;"/>
            <path d="M211.31,260.757C210.81,263.661 215.609,265.043 215.206,262.026C214.764,258.709 211.697,258.502 211.31,260.757Z" style="fill:rgb(91,146,36);fill-rule:nonzero;stroke:rgb(91,146,36);stroke-width:2.21px;"/>
            <path d="M182.676,198.193C182.412,198.061 183.942,198.892 183.649,200.064C183.413,201.007 182.149,202.937 182.526,203.88C183.095,205.303 185.291,205.096 186.044,206.35C186.336,206.837 186.637,208.242 186.493,208.819C186.457,208.962 186.008,209.9 186.193,209.343" style="fill:none;fill-rule:nonzero;stroke:rgb(91,146,36);stroke-width:2.21px;"/>
            <path d="M186.193,216.976C185.914,217.535 186.458,218.482 186.268,219.146C186.143,219.584 185.819,221.885 185.819,221.616" style="fill:none;fill-rule:nonzero;stroke:rgb(91,146,36);stroke-width:2.21px;"/>
            <path d="M184.173,235.909C182.112,235.909 178.298,236.712 179.159,239.726C179.674,241.529 180.646,241.668 182.227,242.195C182.378,242.245 185.37,242.545 183.948,243.018" style="fill:none;fill-rule:nonzero;stroke:rgb(91,146,36);stroke-width:2.21px;"/>
            <path d="M179.711,287.525C179.711,288.348 179.358,289.112 179.249,289.927C179.15,290.675 179.646,291.142 179.804,291.775C179.922,292.249 179.617,292.802 179.527,293.253C179.338,294.196 180.158,297.58 180.912,298.335C182.604,300.026 186.102,298.514 187.38,299.536C188.546,300.469 187.414,301.637 187.934,302.677" style="fill:none;fill-rule:nonzero;stroke:rgb(91,146,36);stroke-width:2.21px;"/>
            <path d="M188.766,312.101C188.766,311.868 189,313.521 189.043,313.949C189.16,315.12 188.225,316.964 187.195,317.552C184.796,318.923 182.253,320.295 179.711,321.248C178.733,321.615 177.099,322.114 176.847,323.373C175.994,327.639 179.421,326.366 181.467,327.9C181.666,328.049 183.037,331.124 183.037,331.503" style="fill:none;fill-rule:nonzero;stroke:rgb(91,146,36);stroke-width:2.21px;"/>
            <path d="M183.789,332.435C183.476,332.122 185.303,332.707 186.172,333.141" style="fill:none;fill-rule:nonzero;stroke:rgb(91,146,36);stroke-width:2.21px;"/>
            <path d="M184.407,347.97C184.311,347.779 183.64,348.76 183.436,349.117C182.989,349.9 183.402,351.209 182.818,351.677C180.112,353.841 176.88,353.85 177.787,358.385C177.865,358.776 178.417,358.927 178.67,359.179C180.34,360.85 183.974,359.84 186.348,359.444C186.794,359.37 187.795,358.976 188.202,359.179C188.384,359.27 188.442,361.346 188.025,362.18" style="fill:none;fill-rule:nonzero;stroke:rgb(91,146,36);stroke-width:2.21px;"/>
            <path d="M187.534,375.771C187.534,374.526 185.788,376.003 185.531,376.318C184.865,377.131 184.632,378.933 184.803,379.959C184.933,380.744 184.647,383.44 184.712,383.6C184.904,384.081 185.589,384.167 185.713,384.602C185.844,385.06 185.654,386.545 185.986,386.878C186.498,387.39 187.079,387.741 187.079,388.516" style="fill:none;fill-rule:nonzero;stroke:rgb(91,146,36);stroke-width:2.21px;"/>
            <path d="M188.808,414.098C189.916,412.435 189.401,412.143 188.717,410.638C188.081,409.239 187.553,408.058 186.259,407.088C185.261,406.339 183.461,405.788 182.8,404.63C182.157,403.504 182.982,402.087 182.982,400.988" style="fill:none;fill-rule:nonzero;stroke:rgb(91,146,36);stroke-width:2.21px;"/>
            <rect x="680.322" y="197.939" width="22.747" height="216.332" style="fill:rgb(211,211,211);fill-rule:nonzero;stroke:black;stroke-width:1.13px;stroke-linecap:butt;"/>
            <rect x="109.428" y="197.665" width="20.99" height="216.782" style="fill:rgb(190,159,139);fill-rule:nonzero;stroke:black;stroke-width:1.13px;stroke-linecap:butt;"/>
            <path d="M185.682,332.675C196.272,336.205 193.626,327.379 198.924,324.201C199.126,324.079 199.488,323.85 199.718,323.803C201.151,323.517 201.176,325.184 202.499,324.995C204.014,324.779 204.586,323.32 206.339,323.671C206.952,323.794 207.369,324.857 208.06,324.995C210.632,325.509 215.561,323.786 216.403,328.835C216.772,331.048 211.106,330.879 211.106,332.278C211.106,333.162 213.809,334.381 214.416,335.191C215.378,336.473 214.682,338.238 215.343,339.561C215.645,340.164 216.405,340.618 215.741,341.282C214.1,342.923 206.084,342.184 205.545,343.533C205.294,344.16 208.083,348.289 208.06,348.3C205.944,349.359 197.782,345.629 197.07,346.579C196.587,347.223 196.04,353.632 195.878,353.729C192.9,355.517 190.101,346.986 188.728,345.784C186.083,343.47 182.683,346.801 184.623,347.771" style="fill:rgb(200,200,200);fill-rule:nonzero;stroke:rgb(91,146,36);stroke-width:2.21px;"/>
        </g>
        <g id="Labels">
            <g transform="matrix(0.999998,0.00210536,-0.00210536,0.999998,500.877,440.24)">
                <text x="-26.667px" y="0px" style="font-family:'Helvetica-Bold', 'Helvetica';font-weight:700;font-size:30px;">pos</text>
            </g>
            <g transform="matrix(0.999998,0.00210536,-0.00210536,0.999998,700.677,440.24)">
                <text x="-16.685px" y="0px" style="font-family:'Helvetica-Bold', 'Helvetica';font-weight:700;font-size:30px;">cc</text>
            </g>
            <g transform="matrix(0.999998,0.00210536,-0.00210536,0.999998,109.081,440.218)">
                <text x="-16.685px" y="0px" style="font-family:'Helvetica-Bold', 'Helvetica';font-weight:700;font-size:30px;">cc</text>
            </g>
            <g transform="matrix(0.999998,0.00210536,-0.00210536,0.999998,115.274,129.174)">
                <g transform="matrix(1,0,0,1,4.92508,56.2214)">
                    <text x="-12.495px" y="0px" style="font-family:'Helvetica-Bold', 'Helvetica';font-weight:700;font-size:30px;">M</text>
                </g>
                <g transform="matrix(1,-4.33681e-19,4.33681e-19,1,285.814,55.1073)">
                    <text x="-33.362px" y="0px" style="font-family:'Helvetica-Bold', 'Helvetica';font-weight:700;font-size:30px;">vcell</text>
                </g>
                <g transform="matrix(0.999998,-0.00210536,0.00210536,0.999998,-115.556,-133.931)">
                    <path d="M316.807,180.713L159,180.379" style="fill:none;stroke:rgb(177,177,177);stroke-width:1px;stroke-miterlimit:1.5;"/>
                </g>
                <g transform="matrix(1,-4.33681e-19,4.33681e-19,1,576.663,56.2214)">
                    <text x="-10.005px" y="0px" style="font-family:'Helvetica-Bold', 'Helvetica';font-weight:700;font-size:30px;">P</text>
                </g>
            </g>
            <g transform="matrix(0.999995,-0.00308437,0.00308437,0.999995,160.688,440.24)">
                <text x="-26.667px" y="0px" style="font-family:'Helvetica-Bold', 'Helvetica';font-weight:700;font-size:30px;">neg</text>
            </g>
            <g transform="matrix(0.999995,-0.00308437,0.00308437,0.999995,395.577,543.601)">
                <text x="-30.835px" y="0px" style="font-family:'Helvetica-Bold', 'Helvetica';font-weight:700;font-size:30px;">iapp</text>
            </g>
            <g transform="matrix(0.999955,-0.00950872,0.00950872,0.999955,279.497,440.003)">
                <text x="-25.847px" y="0px" style="font-family:'Helvetica-Bold', 'Helvetica';font-weight:700;font-size:30px;">sep</text>
            </g>
            <g transform="matrix(0.999955,-0.00950872,0.00950872,0.999955,214.382,440.003)">
                <text x="-17.498px" y="0px" style="font-family:'Helvetica-Bold', 'Helvetica';font-weight:700;font-size:30px;">dll</text>
            </g>
            <g transform="matrix(1.00968,0,0,1,-0.599998,0)">
                <g transform="matrix(0.990415,-0,-0,1,51.4951,163.331)">
                    <path d="M57.244,140.169L52.244,142.669L57.244,145.169L57.244,140.169Z" style="stroke:black;stroke-width:2.5px;stroke-linejoin:miter;"/>
                    <path d="M316.63,324.646L10.607,324.646L10.607,142.669L52.244,142.669" style="fill:none;stroke:black;stroke-width:2.5px;stroke-miterlimit:1.5;"/>
                </g>
            </g>
            <g transform="matrix(1,-0,-0,1,51.3934,163.331)">
                <path d="M652.926,145.169L657.926,142.669L652.926,140.169L652.926,145.169Z" style="stroke:black;stroke-width:2.5px;stroke-linejoin:miter;"/>
                <path d="M373.924,324.646L702.607,324.646L702.607,142.669L657.926,142.669" style="fill:none;stroke:black;stroke-width:2.5px;stroke-miterlimit:1.5;"/>
            </g>
            <g transform="matrix(0.974249,0,0,0.974249,11.382,-0.34415)">
                <path d="M469.714,180.802L650.366,180.802" style="fill:none;stroke:rgb(177,177,177);stroke-width:1.03px;stroke-miterlimit:1.5;"/>
            </g>
        </g>
    </g>
</svg>
